<?xml version="1.0" encoding="utf-8"?>
<!-- Generator: Adobe Illustrator 24.0.0, SVG Export Plug-In . SVG Version: 6.00 Build 0)  -->
<svg version="1.1" id="Layer_1" xmlns="http://www.w3.org/2000/svg" xmlns:xlink="http://www.w3.org/1999/xlink" x="0px" y="0px"
	 viewBox="0 0 159 61.2" style="enable-background:new 0 0 159 61.2;" xml:space="preserve">
<style type="text/css">
	.st0{fill:#BF4F27;}
	.st1{fill:#1E3E59;}
	.st2{enable-background:new    ;}
	.st3{fill:#FFFFFF;}
</style>
<path class="st0" d="M120.3,55.3c-2-2-2.9-4.3-2.9-7.2v-1c0-2.3,0.6-4.5,1.7-6.4s2.7-3.4,4.7-4.6l13.6-7.9V48c0,2.8-0.9,5.2-2.8,7.1
	c-1.9,1.9-4.2,2.9-7,3C124.7,58.2,122.3,57.2,120.3,55.3 M145,18.1c0-2.5-0.5-4.8-1.4-7s-2.2-4-3.8-5.7c-1.6-1.6-3.5-2.9-5.6-3.8
	c-2.2-0.9-4.4-1.4-6.8-1.4c-2.4,0-4.7,0.5-6.8,1.4c-2.2,0.9-4.1,2.2-5.7,3.8c-1.6,1.6-2.9,3.5-3.8,5.7s-1.4,4.5-1.4,7v2.3h7.8h3.8
	l-1.2-1.2c-1.8-1.9-2.6-4.1-2.6-6.5c0-2.7,0.9-5.1,2.8-7c1.8-1.9,4.1-3,6.8-3.1c1.4-0.1,2.8,0.1,4,0.7c1.2,0.5,2.3,1.2,3.3,2.1
	c0.9,0.9,1.7,1.9,2.2,3.2c0.6,1.2,0.8,2.6,0.8,4v6.9l-21.4,12.3c-2,1.1-3.6,2.7-4.7,4.6c-1.1,2-1.7,4.1-1.7,6.4
	c0,2.4,0.5,4.7,1.4,6.8s2.2,4,3.8,5.7c1.6,1.6,3.6,2.9,5.7,3.8c2.2,0.9,4.4,1.4,6.9,1.4c1.8,0,3.5-0.2,5.2-0.7c4-1.3,8-1.1,11.9,0.5
	l0.6,0.2L145,18.1L145,18.1z M105.8,3.3c1.2,0.5,2.2,1.2,3.1,2l3.2-1.9c-1.4-1-3-1.7-4.8-2.3c-1.7-0.6-3.5-0.8-5.3-0.8
	c-2.4,0-4.7,0.5-6.8,1.4c-2.2,0.9-4.1,2.2-5.7,3.8c-1.6,1.6-2.9,3.5-3.8,5.6s-1.4,4.5-1.4,7v42.5H92v-48c0-2.8,1-5.2,2.9-7.1
	s4.3-2.9,7.1-2.9C103.4,2.6,104.6,2.8,105.8,3.3 M65.5,59.7c4.2-1.3,8.2-1.1,12,0.5l0.6,0.2V42.7V0.3h-7.7V48c0,2.8-0.9,5.2-2.8,7.1
	c-1.9,1.9-4.2,2.9-7,3c-2.8,0.1-5.2-0.9-7.2-2.8c-2-2-2.9-4.3-2.9-7.2V9.7c0-3.7,1.3-6.8,3.8-9.4h-3.8h-7.8v42.2
	c0,2.4,0.5,4.7,1.4,6.8c0.9,2.2,2.2,4.1,3.7,5.7c1.6,1.6,3.4,2.9,5.5,3.9c2.1,1,4.4,1.4,6.8,1.4C62,60.4,63.8,60.2,65.5,59.7
	 M10.8,55.3c-2-2-2.9-4.3-2.9-7.2v-1c0-2.3,0.6-4.5,1.7-6.4s2.7-3.4,4.7-4.6l13.6-7.9V48c0,2.8-0.9,5.2-2.8,7.1
	c-1.9,1.9-4.2,2.9-7,3C15.2,58.2,12.8,57.2,10.8,55.3 M35.5,18.1c0-2.5-0.5-4.8-1.4-7c-0.9-2.2-2.2-4-3.8-5.7
	c-1.6-1.6-3.5-2.9-5.6-3.8c-2.2-0.9-4.4-1.4-6.9-1.4S13.2,0.8,11,1.7C8.9,2.6,7,3.9,5.3,5.5S2.4,9,1.5,11.1s-1.4,4.5-1.4,7v2.3h7.8
	h3.9l-1.2-1.2c-1.8-1.9-2.6-4.1-2.6-6.5c0-2.7,0.9-5.1,2.8-7s4.1-3,6.9-3.1c1.4-0.1,2.8,0.1,4,0.7c1.2,0.5,2.3,1.2,3.3,2.1
	c0.9,0.9,1.7,1.9,2.2,3.2c0.6,1.2,0.8,2.6,0.8,4v6.9L6.5,31.7c-2,1.1-3.6,2.7-4.7,4.6c-1.1,2-1.7,4.1-1.7,6.4c0,2.4,0.5,4.7,1.4,6.8
	s2.2,4,3.9,5.7C7,56.8,8.9,58.1,11,59c2.2,0.9,4.5,1.4,6.9,1.4c1.8,0,3.5-0.2,5.2-0.7c4-1.3,8-1.1,11.9,0.5l0.6,0.2V18.1z"/>
<rect x="126.4" y="39.4" class="st1" width="32.8" height="10.3"/>
<g class="st2">
	<path class="st3" d="M131.8,44.3c0.2-0.2,0.3-0.4,0.3-0.7c0-0.1,0-0.3-0.1-0.4c-0.1-0.1-0.1-0.2-0.2-0.3c-0.1-0.1-0.2-0.2-0.3-0.2
		c-0.1-0.1-0.3-0.1-0.4-0.1c-0.1,0-0.3,0-0.4,0.1c-0.1,0.1-0.2,0.1-0.3,0.2s-0.2,0.2-0.2,0.3c0,0.1-0.1,0.3-0.1,0.4
		c0,0.2,0.1,0.4,0.2,0.5c0.1,0.2,0.2,0.3,0.4,0.4l1.6,0.9c0.2,0.1,0.4,0.3,0.5,0.5s0.2,0.4,0.2,0.6v0.2c0,0.2-0.1,0.4-0.2,0.6
		c-0.1,0.2-0.2,0.4-0.4,0.5c-0.2,0.1-0.3,0.3-0.5,0.3c-0.2,0.1-0.4,0.1-0.7,0.1c-0.2,0-0.5,0-0.7-0.1c-0.2-0.1-0.4-0.2-0.6-0.4
		c-0.2-0.2-0.3-0.3-0.4-0.6c-0.1-0.2-0.1-0.4-0.1-0.7v-0.2h1.2l-0.1,0.1c-0.2,0.2-0.3,0.4-0.3,0.7c0,0.3,0.1,0.5,0.3,0.7
		c0.2,0.2,0.4,0.3,0.7,0.3c0.3,0,0.5-0.1,0.7-0.3c0.2-0.2,0.3-0.4,0.3-0.7c0-0.3-0.1-0.5-0.2-0.7c-0.1-0.2-0.3-0.4-0.5-0.5l-1.6-0.9
		c-0.2-0.1-0.3-0.2-0.4-0.4c-0.1-0.2-0.1-0.3-0.1-0.5c0-0.1,0-0.2,0-0.3c0-0.2,0.1-0.4,0.2-0.6s0.2-0.3,0.4-0.5
		c0.2-0.1,0.3-0.2,0.5-0.3c0.2-0.1,0.4-0.1,0.6-0.1c0.2,0,0.5,0,0.7,0.1c0.2,0.1,0.4,0.2,0.6,0.4c0.2,0.2,0.3,0.3,0.4,0.6
		c0.1,0.2,0.1,0.5,0.1,0.7v0.2h-1.2L131.8,44.3z"/>
</g>
<g class="st2">
	<path class="st3" d="M136.4,48.4c-0.2,0-0.5,0-0.7-0.1c-0.2-0.1-0.4-0.2-0.6-0.4c-0.2-0.2-0.3-0.3-0.4-0.6s-0.1-0.4-0.1-0.7v-2.5
		c0-0.2,0-0.5,0.1-0.7c0.1-0.2,0.2-0.4,0.4-0.6c0.2-0.2,0.4-0.3,0.6-0.4c0.2-0.1,0.4-0.1,0.7-0.1s0.5,0,0.7,0.1
		c0.2,0.1,0.4,0.2,0.6,0.4c0.2,0.2,0.3,0.3,0.4,0.6c0.1,0.2,0.1,0.5,0.1,0.7c0,0.2-0.1,0.4-0.2,0.6c-0.1,0.2-0.3,0.4-0.5,0.5
		l-2.1,1.2v0.7c0,0.1,0,0.3,0.1,0.4c0.1,0.1,0.1,0.2,0.2,0.3c0.1,0.1,0.2,0.2,0.3,0.2c0.1,0.1,0.3,0.1,0.4,0.1
		c0.3,0,0.5-0.1,0.7-0.3c0.2-0.2,0.3-0.4,0.3-0.7c0-0.1,0-0.1-0.1-0.2c0-0.1-0.1-0.2-0.1-0.3c-0.1-0.1-0.1-0.2-0.2-0.3h1.2v0.2
		c0,0.2,0,0.5-0.1,0.7s-0.2,0.4-0.4,0.6c-0.2,0.2-0.3,0.3-0.6,0.4C136.9,48.4,136.7,48.4,136.4,48.4z M136.4,42.6
		c-0.3,0-0.5,0.1-0.7,0.3c-0.2,0.2-0.3,0.4-0.3,0.7v2l1.4-0.8c0.2-0.1,0.4-0.3,0.5-0.5s0.2-0.4,0.2-0.6v-0.1c0-0.3-0.1-0.5-0.3-0.7
		C136.9,42.7,136.7,42.6,136.4,42.6z"/>
	<path class="st3" d="M141.5,42.6c-0.3,0-0.5,0.1-0.7,0.3c-0.2,0.2-0.3,0.4-0.3,0.7v4.8h-0.8v-4.2c0-0.2,0-0.5,0.1-0.7
		c0.1-0.2,0.2-0.4,0.4-0.6c0.2-0.2,0.4-0.3,0.6-0.4c0.2-0.1,0.4-0.1,0.7-0.1c0.2,0,0.4,0,0.5,0.1c0.2,0.1,0.3,0.1,0.5,0.2l-0.3,0.2
		c-0.1-0.1-0.2-0.2-0.3-0.2S141.6,42.6,141.5,42.6z"/>
	<path class="st3" d="M144.1,43.3c0-0.4-0.1-0.7-0.4-0.9h1.2v6h-0.8V43.3z M144.9,41.5c-0.1,0-0.1,0.1-0.2,0.2
		c0,0.1-0.1,0.1-0.1,0.2l-0.1,0.1l-0.1-0.1c0-0.1-0.1-0.1-0.1-0.2c0-0.1-0.1-0.1-0.2-0.2l-0.1-0.1l0.1-0.1c0.1,0,0.1-0.1,0.2-0.1
		c0-0.1,0.1-0.1,0.1-0.2l0.1-0.1l0.1,0.1c0,0.1,0.1,0.1,0.1,0.2c0,0.1,0.1,0.1,0.2,0.1l0.1,0.1L144.9,41.5z"/>
</g>
<g class="st2">
	<path class="st3" d="M149.2,48.4c-0.2,0-0.5,0-0.7-0.1c-0.2-0.1-0.4-0.2-0.6-0.4c-0.2-0.2-0.3-0.3-0.4-0.6
		c-0.1-0.2-0.1-0.4-0.1-0.7v-2.5c0-0.2,0-0.5,0.1-0.7c0.1-0.2,0.2-0.4,0.4-0.6c0.2-0.2,0.4-0.3,0.6-0.4c0.2-0.1,0.4-0.1,0.7-0.1
		s0.5,0,0.7,0.1c0.2,0.1,0.4,0.2,0.6,0.4c0.2,0.2,0.3,0.3,0.4,0.6c0.1,0.2,0.1,0.5,0.1,0.7c0,0.2-0.1,0.4-0.2,0.6
		c-0.1,0.2-0.3,0.4-0.5,0.5l-2.1,1.2v0.7c0,0.1,0,0.3,0.1,0.4c0.1,0.1,0.1,0.2,0.2,0.3c0.1,0.1,0.2,0.2,0.3,0.2
		c0.1,0.1,0.3,0.1,0.4,0.1c0.3,0,0.5-0.1,0.7-0.3c0.2-0.2,0.3-0.4,0.3-0.7c0-0.1,0-0.1-0.1-0.2c0-0.1-0.1-0.2-0.1-0.3
		c-0.1-0.1-0.1-0.2-0.2-0.3h1.2v0.2c0,0.2,0,0.5-0.1,0.7c-0.1,0.2-0.2,0.4-0.4,0.6c-0.2,0.2-0.3,0.3-0.6,0.4
		C149.6,48.4,149.4,48.4,149.2,48.4z M149.2,42.6c-0.3,0-0.5,0.1-0.7,0.3c-0.2,0.2-0.3,0.4-0.3,0.7v2l1.4-0.8
		c0.2-0.1,0.4-0.3,0.5-0.5c0.1-0.2,0.2-0.4,0.2-0.6v-0.1c0-0.3-0.1-0.5-0.3-0.7S149.4,42.6,149.2,42.6z"/>
</g>
<g class="st2">
	<path class="st3" d="M155.2,44.3c0.2-0.2,0.3-0.4,0.3-0.7c0-0.1,0-0.3-0.1-0.4c-0.1-0.1-0.1-0.2-0.2-0.3c-0.1-0.1-0.2-0.2-0.3-0.2
		c-0.1-0.1-0.3-0.1-0.4-0.1s-0.3,0-0.4,0.1c-0.1,0.1-0.2,0.1-0.3,0.2c-0.1,0.1-0.2,0.2-0.2,0.3c0,0.1-0.1,0.3-0.1,0.4
		c0,0.2,0.1,0.4,0.2,0.5c0.1,0.2,0.2,0.3,0.4,0.4l1.6,0.9c0.2,0.1,0.4,0.3,0.5,0.5c0.1,0.2,0.2,0.4,0.2,0.6v0.2
		c0,0.2-0.1,0.4-0.2,0.6s-0.2,0.4-0.4,0.5c-0.2,0.1-0.3,0.3-0.5,0.3c-0.2,0.1-0.4,0.1-0.7,0.1c-0.2,0-0.5,0-0.7-0.1
		c-0.2-0.1-0.4-0.2-0.6-0.4c-0.2-0.2-0.3-0.3-0.4-0.6c-0.1-0.2-0.1-0.4-0.1-0.7v-0.2h1.2l-0.1,0.1c-0.2,0.2-0.3,0.4-0.3,0.7
		c0,0.3,0.1,0.5,0.3,0.7c0.2,0.2,0.4,0.3,0.7,0.3c0.3,0,0.5-0.1,0.7-0.3c0.2-0.2,0.3-0.4,0.3-0.7c0-0.3-0.1-0.5-0.2-0.7
		c-0.1-0.2-0.3-0.4-0.5-0.5l-1.6-0.9c-0.2-0.1-0.3-0.2-0.4-0.4c-0.1-0.2-0.1-0.3-0.1-0.5c0-0.1,0-0.2,0-0.3c0-0.2,0.1-0.4,0.2-0.6
		s0.2-0.3,0.4-0.5c0.2-0.1,0.3-0.2,0.5-0.3c0.2-0.1,0.4-0.1,0.6-0.1c0.2,0,0.5,0,0.7,0.1c0.2,0.1,0.4,0.2,0.6,0.4
		c0.2,0.2,0.3,0.3,0.4,0.6c0.1,0.2,0.1,0.5,0.1,0.7v0.2h-1.2L155.2,44.3z"/>
</g>
</svg>
