<?xml version="1.0" encoding="utf-8"?>
<!-- Generator: Adobe Illustrator 24.0.0, SVG Export Plug-In . SVG Version: 6.00 Build 0)  -->
<svg version="1.1" id="Layer_1" xmlns="http://www.w3.org/2000/svg" xmlns:xlink="http://www.w3.org/1999/xlink" x="0px" y="0px"
	 viewBox="0 0 157.2 64.4" style="enable-background:new 0 0 157.2 64.4;" xml:space="preserve">
<style type="text/css">
	.st0{fill:none;stroke:#000000;stroke-width:0.5;stroke-miterlimit:10;}
	.st1{fill:#34A0A0;}
	.st2{enable-background:new    ;}
</style>
<path class="st0" d="M3.6,11.8c-1.7,0-3,1.4-3,3v37.3c0,1.7,1.4,3,3,3h150.2c1.7,0,3-1.4,3-3V14.9c0-1.7-1.4-3-3-3L3.6,11.8
	L3.6,11.8z"/>
<g>
	<path class="st1" d="M29.9,32.1V43c-2.2,1.3-5.7,2-8.4,2C14,45,9.6,39.6,9.6,33.3c0-6.6,4.8-11.7,11.6-11.7c4.1,0,6.5,1.1,8.3,2.9
		l-2.1,2.3c-1.8-1.8-3.9-2.3-6.1-2.3c-5.1,0-8.4,4-8.4,8.8c0,5,3.7,8.8,8.6,8.8c2.1,0,4.1-0.4,5.5-1.2v-6.2h-4.9v-2.8h7.8V32.1z"/>
	<path class="st1" d="M35.4,22.3h7.8c5.7,0,7.1,3.4,7.1,6.2c0,2.8-2.1,5.5-5.5,5.9l6.3,10.1h-3.8l-5.6-9.8h-3.4v9.8h-3L35.4,22.3
		L35.4,22.3z M38.4,32.1h3.9c2.4,0,4.8-0.6,4.8-3.6s-2.4-3.6-4.8-3.6h-3.9V32.1z"/>
	<path class="st1" d="M53.1,33.4c0-6.6,4.8-11.7,11.6-11.7s11.6,5.1,11.6,11.7s-4.8,11.7-11.6,11.7S53.1,40,53.1,33.4z M73.1,33.4
		c0-4.9-3.3-8.8-8.4-8.8s-8.4,4-8.4,8.8c0,4.9,3.3,8.8,8.4,8.8S73.1,38.3,73.1,33.4z"/>
	<path class="st1" d="M79.2,33.4c0-6.6,4.8-11.7,11.6-11.7s11.6,5.1,11.6,11.7s-4.8,11.7-11.6,11.7S79.2,40,79.2,33.4z M99.1,33.4
		c0-4.9-3.3-8.8-8.4-8.8s-8.4,4-8.4,8.8c0,4.9,3.3,8.8,8.4,8.8S99.1,38.3,99.1,33.4z"/>
	<path class="st1" d="M103.6,22.3h3.5l6.5,18h0.1l6.8-18h3.3l-8.7,22.2h-2.9L103.6,22.3z"/>
	<path class="st1" d="M126.4,22.3h14.3v2.8h-11.3v6.6h10.5v2.8h-10.5v7.1h11.9v2.8h-14.9V22.3z"/>
</g>
<g class="st2">
	<path d="M145.6,21.8c1.5,0,2.7,1.2,2.7,2.7s-1.2,2.7-2.7,2.7s-2.7-1.2-2.7-2.7S144.1,21.8,145.6,21.8z M145.6,26.7
		c1.3,0,2.3-1,2.3-2.3s-1-2.3-2.3-2.3s-2.3,1-2.3,2.3C143.3,25.7,144.3,26.7,145.6,26.7z M144.5,22.9h1.1c0.6,0,1.1,0.2,1.1,0.9
		c0,0.4-0.3,0.7-0.7,0.8l0.8,1.3h-0.6l-0.7-1.3h-0.4v1.3h-0.5v-3C144.6,22.9,144.5,22.9,144.5,22.9z M145.5,24.2
		c0.3,0,0.7-0.1,0.7-0.4s-0.3-0.4-0.6-0.4h-0.5v0.9L145.5,24.2L145.5,24.2z"/>
</g>
</svg>
