<svg id="Layer_1" data-name="Layer 1" xmlns="http://www.w3.org/2000/svg" viewBox="0 0 200.94 25.05"><defs><style>.cls-1,.cls-5{fill:#fff;}.cls-2{fill:#bcbec0;}.cls-3,.cls-4{fill:#ec008c;}.cls-4,.cls-5{font-size:17.09px;font-family:AirstrikeExpanded, Airstrike Expanded;}.cls-6{letter-spacing:-0.05em;}</style></defs><title>Hybrid Boards</title><path class="cls-1" d="M11.18,96.4a2.92,2.92,0,0,0-3,3v17.77a2.92,2.92,0,0,0,3,3h181a2.91,2.91,0,0,0,3-3V99.4a2.92,2.92,0,0,0-3-3Z" transform="translate(-7.53 -95.76)"/><path class="cls-2" d="M204.58,120.81H11.42a3.65,3.65,0,0,1-3.89-3.64V99.4a3.68,3.68,0,0,1,3.89-3.64H204.58a3.69,3.69,0,0,1,3.89,3.64v17.77A3.7,3.7,0,0,1,204.58,120.81ZM11.42,97A2.37,2.37,0,0,0,8.9,99.4v17.77a2.34,2.34,0,0,0,2.52,2.36H204.58a2.37,2.37,0,0,0,2.52-2.36V99.4A2.35,2.35,0,0,0,204.58,97Z" transform="translate(-7.53 -95.76)"/><path class="cls-3" d="M106.39,97s-2.69,0-2.69,2.37v17.76a2.43,2.43,0,0,0,2.69,2.36h98.12s2.69,0,2.69-2.36V99.41A2.43,2.43,0,0,0,204.51,97Z" transform="translate(-7.53 -95.76)"/><text class="cls-4" transform="translate(8.19 17.36)">HYBRID</text><text class="cls-5" transform="translate(105.89 17.36)">B<tspan class="cls-6" x="14.13" y="0">O</tspan><tspan x="28.09" y="0">ARDS</tspan></text></svg>