<?xml version="1.0" encoding="utf-8"?>
<!-- Generator: Adobe Illustrator 24.0.0, SVG Export Plug-In . SVG Version: 6.00 Build 0)  -->
<svg version="1.1" id="Layer_1" xmlns="http://www.w3.org/2000/svg" xmlns:xlink="http://www.w3.org/1999/xlink" x="0px" y="0px"
	 viewBox="0 0 105.9 39.6" style="enable-background:new 0 0 105.9 39.6;" xml:space="preserve">
<style type="text/css">
	.st0{fill:#FFC953;}
	.st1{fill:#58595B;}
	.st2{font-family:'Gotham-Book';}
	.st3{font-size:3.6162px;}
</style>
<g>
	<g>
		<path class="st0" d="M52.2,24.7v-5.5h4l1.1-0.1c1.3-0.2,2.3-0.8,3-1.7c0.6-0.9,1-2,1-3.3c0-0.9-0.1-1.6-0.4-2.3
			c-0.3-0.7-0.7-1.3-1.3-1.8c-0.6-0.5-1.3-0.8-2.2-0.9c-0.2,0-0.4-0.1-0.7-0.1s-0.4,0-0.6,0h-6.4v15.6H52.2L52.2,24.7z M61.5,24.7
			l-3.4-6.9l-2.7,0.6l3.1,6.3H61.5L61.5,24.7z M52.2,11.5H56c0.1,0,0.3,0,0.5,0c0.2,0,0.3,0,0.5,0.1c0.4,0.1,0.8,0.3,1,0.6
			c0.3,0.3,0.4,0.6,0.5,0.9c0.1,0.3,0.2,0.7,0.2,1c0,0.3-0.1,0.7-0.2,1c-0.1,0.3-0.3,0.7-0.5,0.9c-0.3,0.3-0.6,0.5-1,0.6
			c-0.2,0-0.3,0.1-0.5,0.1c-0.2,0-0.3,0-0.5,0h-3.7V11.5L52.2,11.5z M66.6,24.7v-11l7.2,11h2.6V9.1h-2.6v11l-7.2-11h-2.6v15.6H66.6
			L66.6,24.7z"/>
		<path class="st0" d="M29.6,24.7c1,0,1.9-0.2,2.6-0.6c0.7-0.4,1.2-0.9,1.6-1.6c0.4-0.7,0.5-1.5,0.5-2.4c0-0.9-0.3-1.7-0.8-2.4
			s-1.3-1.2-2.2-1.4v0.5c0.7-0.2,1.3-0.6,1.7-1.2c0.4-0.6,0.6-1.3,0.6-2.2c0-0.7-0.2-1.4-0.5-2c-0.3-0.7-0.8-1.2-1.5-1.6
			C30.9,9.3,30,9.1,29,9.1h-6.2v15.6H29.6L29.6,24.7z M25.4,17.7h3.9c0.5,0,0.9,0.1,1.2,0.3c0.3,0.2,0.6,0.5,0.8,0.8
			c0.2,0.3,0.3,0.7,0.3,1.1c0,0.5-0.1,0.9-0.3,1.2c-0.2,0.3-0.5,0.6-0.8,0.8s-0.8,0.3-1.2,0.3h-3.8V17.7L25.4,17.7z M25.4,11.5h3.5
			c0.6,0,1.1,0.2,1.5,0.5s0.5,0.8,0.5,1.4c0,0.4-0.1,0.8-0.3,1c-0.2,0.3-0.4,0.5-0.7,0.6c-0.3,0.1-0.6,0.2-1,0.2h-3.5V11.5
			L25.4,11.5z"/>
		<path class="st0" d="M38.3,16.4c-0.6,0.3-1.2,0.7-1.5,1.2C36.2,18.3,36,19.1,36,20c0,0.9,0.2,1.7,0.5,2.4c0.4,0.7,0.9,1.2,1.6,1.6
			s1.6,0.6,2.6,0.6h6.8v-2.5H41c-0.5,0-0.9-0.1-1.2-0.3c-0.4-0.2-0.6-0.4-0.8-0.8s-0.3-0.7-0.3-1.2c0-0.4,0.1-0.8,0.3-1.1
			c0.2-0.3,0.4-0.6,0.8-0.8c0.3-0.2,0.8-0.3,1.2-0.3h6.6v-2.4h-6.2c-0.4,0-0.7-0.1-1-0.2c-0.3-0.1-0.5-0.4-0.7-0.6
			c-0.2-0.3-0.3-0.6-0.3-1c0-0.5,0.2-1,0.5-1.4c0.3-0.4,0.8-0.5,1.5-0.5h6.2V9.1h-6.2c-1.1,0-1.9,0.2-2.6,0.6s-1.2,1-1.5,1.6
			c-0.3,0.7-0.5,1.3-0.5,2c0,0.9,0.2,1.6,0.6,2.2C37.6,15.9,37.9,16.2,38.3,16.4"/>
		<path class="st0" d="M81.1,12.4v-0.9l0.4,0.6h0.2l0.4-0.6v0.9h0.3v-1.6h-0.3l-0.5,0.8L81,10.9h-0.3v1.6H81.1L81.1,12.4z
			 M79.9,12.4v-1.3h0.5v-0.3H79v0.3h0.5v1.3H79.9L79.9,12.4z"/>
		<path class="st0" d="M83.2,11.6c0-1.4-1.1-2.5-2.5-2.5c-1.4,0-2.5,1.1-2.5,2.5s1.1,2.5,2.5,2.5C82.1,14.1,83.2,13,83.2,11.6
			L83.2,11.6z M83,11.6c0,1.3-1,2.3-2.3,2.3s-2.3-1-2.3-2.3s1-2.3,2.3-2.3C82,9.4,83,10.4,83,11.6L83,11.6z"/>
	</g>
	<text transform="matrix(1 0 0 1 22.8379 29.6946)" class="st1 st2 st3">DECORATIVE PVC LAMINATE</text>
</g>
</svg>
