<?xml version="1.0" encoding="utf-8"?>
<!-- Generator: Adobe Illustrator 24.0.0, SVG Export Plug-In . SVG Version: 6.00 Build 0)  -->
<svg version="1.1" id="Layer_1" xmlns="http://www.w3.org/2000/svg" xmlns:xlink="http://www.w3.org/1999/xlink" x="0px" y="0px"
	 viewBox="0 0 225.4 89.8" style="enable-background:new 0 0 225.4 89.8;" xml:space="preserve">
<style type="text/css">
	.st0{fill:none;stroke:#986F33;stroke-width:2;}
	.st1{fill:#986F33;}
</style>
<g>
	<line class="st0" x1="135.3" y1="70.8" x2="46.4" y2="70.8"/>
	<g>
		<path class="st1" d="M174.9,29.6c0,5.1-3.7,9.1-8.7,9.1c-5.1,0-8.7-4.1-8.7-9.2v-0.1c0-5.1,3.7-9.1,8.7-9.1
			C171.3,20.3,174.9,24.4,174.9,29.6L174.9,29.6z M176.5,29.5C176.6,29.4,176.6,29.4,176.5,29.5c0-5.7-4.1-10.6-10.3-10.6
			s-10.3,5-10.3,10.6v0.1c0,5.6,4.1,10.5,10.3,10.5C172.4,40.1,176.5,35,176.5,29.5 M153.2,36.5l-1-1c-2.1,2.1-4.1,3.2-7.1,3.2
			c-4.9,0-8.7-4-8.7-9.2v-0.1c0-5.1,3.7-9.1,8.6-9.1c3.1,0,5.1,1.3,6.9,3l1.1-1.1c-2.1-1.9-4.3-3.3-8-3.3c-5.9,0-10.3,4.8-10.3,10.6
			v0.1c0,5.9,4.3,10.5,10.2,10.5C148.8,40.1,151.1,38.6,153.2,36.5 M129.1,25.2c0,2.9-2.5,4.7-6,4.7h-6.9v-9.2h7
			C126.9,20.7,129.1,22.4,129.1,25.2L129.1,25.2z M131.4,39.7l-6.8-8.7c3.5-0.5,6-2.4,6-5.8v-0.1c0-3.4-2.9-5.8-7.3-5.8h-8.6v20.4
			h1.5v-8.5h6.7l6.5,8.5H131.4z M105.4,32.6H94.7l5.4-11.8L105.4,32.6z M110.3,39.7l-9.5-20.6h-1.5l-9.5,20.6h1.6L94,34H106l2.6,5.7
			H110.3z M85.5,39.7V19.3H84v9.5H70.9v-9.5h-1.5v20.4h1.5v-9.5h13.1v9.6L85.5,39.7L85.5,39.7z M65.2,36.5l-1-1
			c-2.1,2.1-4.1,3.2-7.1,3.2c-4.9,0-8.7-4-8.7-9.2v-0.1c0-5.1,3.7-9.1,8.6-9.1c3.1,0,5.1,1.3,6.9,3l1.1-1.1c-2.1-1.9-4.3-3.3-8-3.3
			c-5.9,0-10.3,4.8-10.3,10.6v0.1c0,5.9,4.3,10.5,10.2,10.5C60.7,40.1,63,38.6,65.2,36.5"/>
		<path class="st1" d="M145.9,39.4h1.3l9.5,29.2l9.5-29.2h1.3l11,31.9h-1.6l-10-29.6l-9.5,29.6h-1.2l-9.5-29.6l-10,29.5H135
			L145.9,39.4z M129.1,54.1c0-2.9-2.5-4.7-6-4.7h-6.9v9.2h7C126.9,58.7,129.1,57,129.1,54.1L129.1,54.1z M131.4,39.6l-6.8,8.7
			c3.5,0.5,6,2.4,6,5.8v0.1c0,3.4-2.9,5.8-7.3,5.8h-8.6V39.6h1.5v8.5h6.7l6.5-8.5C129.5,39.6,131.4,39.6,131.4,39.6z M105.4,46.7
			H94.7l5.4,11.8L105.4,46.7z M110.3,39.6l-9.5,20.6h-1.5l-9.5-20.6h1.6l2.6,5.7H106l2.6-5.7H110.3z M85.5,39.6V60H84v-9.4H70.9v9.5
			h-1.5V39.6h1.5v9.6h13.1v-9.6H85.5z M65.2,42.8l-1,1c-2.1-2.1-4.1-3.2-7.1-3.2c-4.9,0-8.7,4-8.7,9.2v0.1c0,5.1,3.7,9.1,8.6,9.1
			c3.1,0,5.1-1.3,6.9-3l1.1,1.1c-2.1,1.9-4.3,3.3-8,3.3c-5.9,0-10.3-4.8-10.3-10.6v-0.1c0-5.9,4.3-10.5,10.2-10.5
			C60.7,39.2,63,40.7,65.2,42.8"/>
	</g>
</g>
</svg>
