<?xml version="1.0" encoding="utf-8"?>
<!-- Generator: Adobe Illustrator 24.0.0, SVG Export Plug-In . SVG Version: 6.00 Build 0)  -->
<svg version="1.1" id="Layer_1" xmlns="http://www.w3.org/2000/svg" xmlns:xlink="http://www.w3.org/1999/xlink" x="0px" y="0px"
	 viewBox="0 0 176.4 84.4" style="enable-background:new 0 0 176.4 84.4;" xml:space="preserve">
<style type="text/css">
	.st0{clip-path:url(#SVGID_2_);fill:#003F7D;}
	.st1{clip-path:url(#SVGID_4_);fill:#8C5627;}
	.st2{clip-path:url(#SVGID_6_);fill:#003F7D;}
	.st3{clip-path:url(#SVGID_8_);}
</style>
<g>
	<g>
		<g>
			<defs>
				<rect id="SVGID_1_" x="43.4" y="20.8" width="84.3" height="36.1"/>
			</defs>
			<clipPath id="SVGID_2_">
				<use xlink:href="#SVGID_1_"  style="overflow:visible;"/>
			</clipPath>
			<path class="st0" d="M123.3,34.4L123.3,34.4L123.3,34.4L123.3,34.4z M120.8,34.9C120.8,34.9,120.8,34.9,120.8,34.9
				c0.1,0,0.1,0.1,0.1,0.1c0.1,0,0.1,0,0.2,0c0,0,0,0,0,0c0-0.1,0-0.1-0.1-0.1C120.9,34.9,120.8,34.9,120.8,34.9 M122.1,34.7
				c-0.2,0-0.4,0-0.5,0.1C121.8,34.8,122,34.7,122.1,34.7 M122.1,34.7L122.1,34.7L122.1,34.7L122.1,34.7L122.1,34.7z M122.1,43.8
				C122,43.8,122,43.8,122.1,43.8L122.1,43.8L122.1,43.8z M126.4,23.5C126.4,23.5,126.4,23.5,126.4,23.5
				C126.4,23.5,126.4,23.5,126.4,23.5 M126.4,23.4L126.4,23.4L126.4,23.4C126.4,23.4,126.4,23.4,126.4,23.4
				C126.4,23.5,126.4,23.5,126.4,23.4C126.4,23.5,126.4,23.4,126.4,23.4 M126.5,23.6c0,0.1,0.1,0.2,0.2,0.3
				C126.6,23.8,126.6,23.7,126.5,23.6 M126.5,23.6L126.5,23.6C126.5,23.6,126.5,23.5,126.5,23.6C126.5,23.6,126.5,23.6,126.5,23.6
				L126.5,23.6z M113.3,27.6C113.4,27.6,113.4,27.6,113.3,27.6L113.3,27.6L113.3,27.6z M113.3,27.6c-0.1,0.1-0.1,0.1,0,0.1V27.6z
				 M127,24.7c0.1,0.2,0.1,0.3,0.2,0.5c0.1,0.1,0.1,0.2,0.2,0.2c0.1-0.2,0-0.3,0-0.5c-0.1-0.2-0.2-0.3-0.2-0.5
				c0-0.2-0.1-0.4-0.3-0.5c0,0.1,0,0.2,0,0.3C126.8,24.4,126.9,24.6,127,24.7 M119.8,44.2c-0.1,0.1-0.2,0.2-0.3,0.3
				c-0.1,0.1-0.2,0.1-0.4,0.2c-0.5,0.2-1,0.3-1.5,0.3c-0.4,0.1-0.7-0.1-0.9-0.3c-0.2-0.2-0.4-0.5-0.6-0.8c-0.2-0.3-0.3-0.6-0.4-0.9
				c-0.1-0.2-0.1-0.4-0.1-0.6s0-0.4,0-0.6c0-0.3,0-0.7,0-1c0-0.3,0-0.7,0.1-1c0.1-0.4,0.1-0.7,0.2-1.1s0.1-0.7,0.3-1.1
				c0.1-0.2,0.1-0.4,0.1-0.6c0-0.2,0.1-0.4,0.1-0.6c0.1-0.3,0.1-0.4,0.2-0.5c0.1-0.1,0.2-0.1,0.5-0.1c0.4,0,0.7,0,1.1-0.1
				c0.4,0,0.7,0,1.1-0.1c0.2,0,0.5,0,0.7-0.1c0.2,0,0.5,0,0.7-0.1l0.1-0.1c0.1-0.1,0-0.1-0.2-0.2c-0.2,0-0.3,0-0.4,0
				c-0.1,0-0.1,0-0.1,0c0,0-0.1,0-0.1,0c-0.1-0.1-0.1-0.1,0-0.2l0.1-0.2h-1.2h-1.4c-0.1,0-0.2,0-0.3-0.1c-0.1,0-0.1,0-0.1-0.1
				c0-0.1,0-0.1,0-0.2c0-0.1,0-0.1,0-0.2c0-0.1,0-0.1,0-0.2c0.1-0.3,0.2-0.6,0.4-0.8c0.1-0.3,0.2-0.5,0.4-0.8c0.1-0.2,0-0.4-0.1-0.5
				c-0.1-0.1-0.1-0.1-0.2-0.2c-0.1-0.1-0.2-0.1-0.2-0.2c-0.2-0.2-0.5-0.2-0.7-0.2c-0.2,0-0.4,0.1-0.5,0.3c-0.2,0.2-0.3,0.3-0.3,0.5
				l-0.5,1.3c-0.1,0.1-0.1,0.1-0.1,0.2s0,0.1-0.1,0.2c-0.1,0.1-0.1,0.1-0.2,0c0,0-0.1,0-0.1,0c0,0-0.1,0-0.1,0
				c-0.3-0.3-0.5-0.8-0.7-1.4c-0.1-0.4-0.1-0.7-0.1-1c0-0.3,0-0.7,0.1-1c0.1-0.5,0.2-0.9,0.3-1.3c0.1-0.3,0.3-0.7,0.5-1.3
				c0.1-0.4,0.2-0.7,0.4-1c0.2-0.3,0.4-0.7,0.6-1c0.1-0.1,0.1-0.3,0.3-0.4c0.3-0.4,0.6-0.7,1-1c0.3-0.3,0.7-0.6,1.1-0.9
				c0.1-0.1,0.2-0.2,0.3-0.3c0.3-0.2,0.4-0.3,0.5-0.4c0.1-0.1,0.2-0.3,0.3-0.6c0.1,0,0.1,0,0.1,0c0,0,0.1,0,0.1,0
				c0.4,0,0.9-0.1,1.3-0.3c0.2-0.1,0.4-0.2,0.7-0.2c0.2,0,0.5-0.1,0.8-0.1c0.4,0,0.7,0.1,1.1,0.3c0.3,0.2,0.7,0.4,1,0.6
				c0.5,0.3,0.8,0.7,1.1,1.2c0.2,0.2,0.4,0.4,0.5,0.7c0.1,0.2,0.2,0.5,0.3,0.8c0.1,0.4,0.2,0.8,0.2,1.2c0,0.4,0.1,0.8,0.1,1.2V28
				c0,0.3,0,0.5-0.1,0.8c0,0.2,0,0.5,0,0.8c-0.1,0.9-0.2,1.8-0.3,2.6c-0.2,0.8-0.4,1.7-0.6,2.5c-0.1,0.2-0.1,0.3-0.2,0.5
				s-0.1,0.3-0.2,0.5c-0.1,0.3-0.2,0.6-0.3,0.8s-0.2,0.5-0.3,0.8c-0.2,0.5-0.4,1-0.7,1.4c-0.2,0.5-0.5,0.9-0.8,1.4
				c-0.4,0.7-0.8,1.4-1.3,2c-0.5,0.6-1,1.2-1.6,1.8C120,44,119.9,44.1,119.8,44.2 M117.5,23c0,0.1,0,0.1-0.1,0.1L117.5,23L117.5,23z
				 M113.5,30.7L113.5,30.7L113.5,30.7L113.5,30.7z M127.4,25.6V26c-0.1,0.4-0.1,0.9,0.1,1.4c0.1,0.3,0.1,0.7,0.1,1s0,0.6-0.1,1
				c0,0.3-0.1,0.5-0.1,0.7c-0.1,0.2-0.1,0.5,0,0.8c0,0,0,0,0,0.1c0,0,0,0,0,0.1c-0.1,0.4-0.2,0.7-0.2,1.1c-0.1,0.3-0.1,0.7-0.2,1.1
				c0,0.1,0,0.2-0.1,0.3c0,0.1,0,0.2-0.1,0.3c-0.1,0.2-0.2,0.4-0.2,0.6c-0.1,0.2-0.1,0.4-0.3,0.6c-0.1,0.2-0.2,0.4-0.2,0.7
				c0,0.1,0,0.1,0,0.2c0,0.1,0,0.1-0.1,0.2c-0.1,0.1-0.1,0.3-0.2,0.4c-0.1,0.2-0.1,0.3-0.2,0.4c-0.1,0.4-0.3,0.7-0.4,1
				c-0.2,0.3-0.3,0.7-0.5,1c-0.1,0.2-0.2,0.3-0.3,0.5c-0.1,0.2-0.2,0.3-0.2,0.5c-0.3,0.6-0.6,1.1-1,1.6c-0.1,0.1-0.1,0.1-0.1,0v-0.1
				c0.1-0.2,0.1-0.3,0.2-0.5c0.1-0.2,0.1-0.3,0.1-0.5c0-0.1,0-0.1,0-0.2c0-0.1,0.1-0.1,0.1-0.2c0.1-0.2,0.2-0.4,0.2-0.5
				c0.1-0.2,0.2-0.3,0.3-0.5c0.2-0.3,0.4-0.7,0.5-1c0.2-0.3,0.3-0.6,0.5-1c0.1-0.1,0.1-0.1,0.1-0.2c0.1-0.4,0.2-0.7,0.4-1
				c0.1-0.3,0.3-0.7,0.4-1c0.1-0.1,0.1-0.2,0.1-0.2c0-0.1,0.1-0.1,0.1-0.2c0.1-0.1,0.2-0.2,0.2-0.3c0-0.1,0.1-0.3,0.1-0.4
				c0.1-0.5,0.2-1.1,0.3-1.6c0.1-0.6,0.1-1.1,0.2-1.7c0-0.3,0.1-0.5,0.3-0.6c0.1-0.1,0.1-0.2,0-0.3c0-0.1,0-0.1,0-0.2
				c0-0.1,0-0.1,0-0.2c-0.1-0.2-0.1-0.4,0-0.6c0-0.1,0-0.1,0.1-0.2c0-0.1,0-0.1,0.1-0.2c0-0.1,0-0.1,0-0.2s0-0.1,0-0.2
				c0-0.3-0.1-0.4-0.3-0.5c-0.1-0.1-0.2-0.2-0.2-0.3l-0.1-1.7c0,0,0,0,0,0c0,0,0,0,0,0c0.1,0,0.1,0,0.1,0.1v0.5
				c0.1,0.2,0.1,0.3,0.1,0.5c0,0.2,0.1,0.3,0.1,0.5c0,0,0,0,0.1,0c0.1-0.2,0.1-0.4,0.1-0.5c0-0.2,0-0.3-0.1-0.5
				c-0.1-0.4-0.2-0.7-0.3-1.1c-0.1-0.4-0.2-0.7-0.3-1c0-0.1,0-0.2,0-0.3c0.1,0,0.1,0,0.1,0c-0.1-0.2-0.1-0.3-0.2-0.4
				c-0.1-0.1-0.2-0.2-0.3-0.4s-0.3-0.2-0.4-0.3s-0.3-0.2-0.4-0.3c-0.1-0.1-0.3-0.2-0.4-0.3c-0.2-0.1-0.3-0.1-0.4-0.2
				c-0.2-0.1-0.4-0.1-0.5-0.2c-0.2-0.1-0.4-0.1-0.5-0.2c-0.5-0.1-1-0.2-1.5-0.2s-1,0.1-1.5,0.3c-0.3,0.1-0.7,0.2-1.1,0.4
				c-1.1,0.4-2.1,1-2.9,1.8c-0.1,0.1-0.2,0.2-0.3,0.3c-0.1,0.1-0.2,0.2-0.3,0.3c-0.7,0.7-1.4,1.5-1.8,2.4c-0.2,0.4-0.2,0.7-0.2,1.1
				c0,0,0,0,0.1,0c0,0,0,0,0.1,0l0.3-0.7c0.1-0.2,0.2-0.4,0.3-0.5c0.1-0.2,0.2-0.3,0.4-0.5c0.1-0.1,0.2-0.3,0.3-0.4
				c0.1-0.2,0.2-0.3,0.3-0.4c0.2-0.3,0.4-0.6,0.7-0.8c0.3-0.3,0.5-0.5,0.8-0.7c0.2-0.1,0.4-0.2,0.7-0.3c-0.1,0.1-0.1,0.1-0.1,0.1
				c0,0,0,0.1-0.1,0.1c-0.1,0.1-0.3,0.2-0.5,0.4c-0.3,0.4-0.7,0.7-0.9,1c-0.3,0.3-0.7,0.8-1.1,1.4c0,0.1-0.1,0.1-0.2,0.2
				c-0.2,0.3-0.4,0.7-0.6,1.1c-0.1,0.2-0.2,0.4-0.3,0.7c-0.1,0.2-0.2,0.5-0.3,0.7c-0.1,0.1-0.1,0.2-0.1,0.3c0,0.1,0,0.2-0.1,0.2
				c-0.1,0.4-0.2,0.8-0.2,1.2c-0.1,0.4-0.1,0.8-0.2,1.2c-0.1,0.2-0.1,0.3,0,0.5c0.1,0.4,0.1,0.8,0.3,1.2c0.1,0.4,0.4,0.8,0.6,1.1
				c0.2,0.2,0.3,0.3,0.4,0.4c0.3,0.1,0.4,0.3,0.2,0.6c-0.1,0.2-0.1,0.3-0.1,0.4c-0.1,0.6-0.2,1.2-0.4,1.8c-0.1,0.6-0.2,1.2-0.2,1.8
				c0,0.3,0,0.5-0.1,0.8c0,0.3,0,0.5,0.1,0.8c0,0.1,0,0.2,0,0.4c0,0.1,0,0.2,0,0.4c0,0.3,0,0.5,0.1,0.8c0.1,0.2,0.2,0.5,0.3,0.8
				c0.1,0.2,0.1,0.3,0.2,0.5c0.1,0.1,0.2,0.3,0.3,0.4c0.1,0.2,0.3,0.3,0.5,0.4c0.2,0.1,0.4,0.2,0.5,0.4c0.2,0.2,0.5,0.4,0.7,0.5
				c0.3,0.1,0.5,0.2,0.8,0.3c0.4,0.1,0.7,0.2,1,0.1c0.2-0.1,0.4-0.1,0.5-0.1c0.2,0,0.4-0.1,0.5-0.1c0.7-0.2,1.3-0.5,1.8-1
				c0.2-0.2,0.3-0.4,0.5-0.5s0.3-0.4,0.4-0.6c0,0,0,0,0,0c-0.1-0.1-0.2-0.2-0.1-0.2c0.1-0.1,0.2-0.2,0.3-0.3c0-0.1,0.1-0.1,0.1,0
				c0,0,0,0.1,0,0.1c0.2,0,0.3-0.1,0.3-0.2c0.3-0.3,0.5-0.7,0.7-1c0.2-0.3,0.4-0.7,0.5-1.1c0-0.1,0-0.1,0.1-0.1c0,0,0-0.1,0.1-0.1
				c0.2-0.3,0.4-0.6,0.6-1s0.3-0.7,0.5-1c0.2-0.4,0.4-0.9,0.6-1.3c0.2-0.4,0.3-0.8,0.4-1.3c0-0.1,0.1-0.2,0.1-0.3
				c0.1-0.2,0.2-0.3,0.2-0.5c0-0.2,0.1-0.4,0.1-0.5c0.1-0.2,0.1-0.4,0.2-0.7c0.1-0.2,0.1-0.5,0.2-0.7c0.1-0.2,0.1-0.5,0.2-0.7
				s0.1-0.5,0.2-0.7c0.1-0.5,0.2-1,0.2-1.5s0.1-1,0.1-1.5c0-0.4,0-0.8,0-1.2s0-0.8-0.1-1.2C127.6,26.3,127.5,25.9,127.4,25.6
				 M127.4,25.5L127.4,25.5L127.4,25.5C127.3,25.5,127.3,25.6,127.4,25.5L127.4,25.5z M112.4,41c0.1,0,0.1,0,0.2-0.1v0l0,0L112.4,41
				z M105.6,41.1C105.6,41.1,105.6,41.1,105.6,41.1c-0.3,0.2-0.6,0.4-0.8,0.6c-0.3,0.2-0.5,0.3-0.8,0.4l-0.4,0.1
				c0.1-0.1,0.1-0.2,0.2-0.2c0.1,0,0.1-0.1,0.2-0.1c0.1-0.1,0.2-0.1,0.2-0.2c0-0.1,0.1-0.2,0.2-0.3l0.3-0.3c0.2-0.2,0.5-0.3,0.7-0.2
				c0,0,0.1,0,0.2-0.1v0c0.1,0,0.1,0,0.1,0C105.7,40.9,105.8,41,105.6,41.1C105.7,41.1,105.7,41.1,105.6,41.1 M100.1,41.9
				c-0.1,0.1-0.1,0.2-0.2,0.2v-0.2c0.1-0.2,0.2-0.5,0.3-0.7c0.1-0.2,0.2-0.4,0.4-0.6l1.4-1.5l0.4-0.5c0.2-0.2,0.4-0.4,0.6-0.5
				c0.2-0.1,0.4-0.3,0.6-0.4c0.1,0,0.1,0,0.1,0c0,0.1,0,0.1,0,0.1c0,0,0,0.1,0,0.1c-0.1,0.1-0.2,0.2-0.3,0.2
				c-0.1,0.1-0.2,0.2-0.2,0.3c-0.9,0.8-1.7,1.8-2.4,2.7L100.1,41.9z M99.8,42.2L99.8,42.2L99.8,42.2L99.8,42.2z M103.8,37.7
				c0,0,0.1-0.1,0.2-0.1C103.9,37.6,103.9,37.6,103.8,37.7 M114,38.7c-0.4,0.3-0.8,0.7-1.3,1c-0.3,0.3-0.7,0.6-1,0.9s-0.7,0.6-1,0.9
				c-0.4,0.4-0.9,0.8-1.4,1.1c-0.5,0.3-0.9,0.6-1.5,0.9c-0.1,0.1-0.2,0.1-0.2,0.1c-0.1,0-0.2,0-0.2-0.1c-0.1-0.1-0.1-0.2-0.1-0.2
				c0-0.2-0.1-0.5-0.1-0.8c0-0.3,0-0.6,0-0.8c0.1-0.1,0.1-0.3,0-0.4c-0.1-0.2-0.1-0.3-0.2-0.3c-0.1-0.1-0.1-0.2-0.2-0.2
				c-0.3-0.1-0.5-0.3-0.7-0.5c-0.1-0.2-0.2-0.2-0.4-0.2c-0.1,0-0.2,0-0.3,0.1c-0.1,0.1-0.2,0.1-0.3,0.2l-1.9,1.2l-1.6,1
				c-0.1,0.1-0.2,0.1-0.3,0.2c-0.1,0.1-0.2,0.1-0.3,0.2l-0.1,0.1c-0.1,0-0.2,0-0.2-0.1v-0.2c0.2-0.3,0.3-0.6,0.5-0.9
				c0.2-0.3,0.4-0.5,0.6-0.8c0.1-0.1,0.2-0.2,0.3-0.4c0.1-0.1,0.2-0.2,0.3-0.4c0.1-0.2,0.2-0.3,0.3-0.4c0.2-0.2,0.4-0.4,0.6-0.6
				c0.2-0.2,0.4-0.4,0.7-0.6c0.2-0.2,0.4-0.3,0.6-0.5c0.2-0.2,0.5-0.3,0.7-0.4c0.3-0.1,0.5-0.2,0.7-0.4c0.1-0.1,0.1-0.1,0.2-0.2
				c0.2-0.1,0.4,0,0.5,0.2c0.1,0.2,0.1,0.4-0.1,0.6l-0.4,0.5l0,0c0.1,0.1,0.1,0.1,0.1,0.1c0.1,0.1,0.2,0.1,0.2,0.1
				c0.1,0,0.2,0,0.2,0.1c0.1,0.1,0.2,0,0.3-0.1l0.4-0.3c0.1-0.1,0.2-0.3,0.2-0.4c0-0.1,0-0.1,0.1-0.1c0,0,0-0.1,0.1-0.1
				c0.1-0.2,0.1-0.4,0-0.6c-0.3-0.4-0.6-0.7-0.9-0.8c-0.2-0.1-0.4-0.1-0.6-0.1c-0.2,0-0.4-0.1-0.6-0.1c-0.1,0-0.2,0-0.3,0.1
				c-0.1,0.1-0.3,0.2-0.5,0.2c-0.2,0-0.4,0.1-0.6,0.2c-0.4,0.2-0.8,0.5-1.3,0.8c-0.3,0.2-0.5,0.5-0.7,0.7c-0.2,0.2-0.5,0.5-0.7,0.7
				c-0.2,0.1-0.3,0.3-0.4,0.4c-0.1,0.2-0.3,0.3-0.4,0.5c-0.2,0.3-0.5,0.6-0.7,0.9c-0.2,0.3-0.4,0.6-0.5,1c-0.1,0.2-0.2,0.5-0.3,0.7
				c-0.1,0.2-0.1,0.5-0.1,0.8c0.1,0.2,0.2,0.4,0.2,0.5c0.1,0.2,0.2,0.4,0.3,0.5l0.5,0.3c0.2,0.1,0.4,0.2,0.7,0.1
				c0.1-0.1,0.2-0.1,0.2-0.1c0.1,0,0.2-0.1,0.2-0.1c0.2-0.1,0.3-0.2,0.5-0.3c0.2-0.1,0.3-0.2,0.5-0.3c0.3-0.2,0.5-0.4,0.7-0.6
				c0.2-0.2,0.5-0.4,0.7-0.6c0.3-0.2,0.5-0.4,0.8-0.6c0.3-0.2,0.5-0.4,0.8-0.6c0.1-0.1,0.2,0,0.2,0.2c0,0.1,0,0.3,0,0.4
				c0,0.1,0,0.3,0.1,0.4c0.1,0.3,0.1,0.6,0.3,0.9s0.3,0.5,0.5,0.8l0.2,0.2c0.1,0.1,0.2,0.2,0.3,0.2c0.1,0.1,0.2,0.2,0.3,0.2
				c0.3,0.2,0.6,0.2,0.8,0c0.4-0.2,0.7-0.4,1-0.5c0.3-0.2,0.6-0.4,0.9-0.7c0.2-0.1,0.3-0.3,0.4-0.4c0.1-0.1,0.3-0.3,0.4-0.5
				c0,0,0-0.1,0-0.1c0-0.1,0-0.1,0-0.1c0,0,0-0.1,0-0.1s0.1-0.1,0.1-0.1c0,0,0.1-0.1,0.1-0.1c-0.1,0-0.2,0-0.3,0.1
				c-0.1,0.1-0.2,0.1-0.3,0.2c-0.1,0.1-0.2,0.1-0.3,0.2h0l-0.1,0v-0.1c0.1-0.1,0.1-0.2,0.2-0.2c0.1-0.1,0.1-0.1,0.2-0.2
				c0.2-0.1,0.3-0.3,0.5-0.4s0.3-0.3,0.4-0.4c0.2-0.2,0.4-0.4,0.5-0.5s0.4-0.4,0.6-0.5c0.3-0.3,0.7-0.6,1-0.8c0.3-0.3,0.7-0.5,1-0.8
				c0.1-0.1,0.2-0.2,0.4-0.3s0.2-0.2,0.4-0.3c0.1-0.1,0.1-0.2,0.2-0.3c-0.1,0-0.1,0-0.1,0.1c0,0-0.1,0-0.1,0.1
				C114.8,38,114.4,38.4,114,38.7 M112.2,41.3C112.2,41.3,112.2,41.3,112.2,41.3c0.1-0.1,0.2-0.2,0.2-0.2c0,0.1-0.1,0.1-0.1,0.1
				C112.3,41.1,112.3,41.2,112.2,41.3C112.2,41.2,112.1,41.2,112.2,41.3C112.1,41.3,112.1,41.3,112.2,41.3
				C112.1,41.3,112.1,41.3,112.2,41.3 M111.3,42.1c0,0,0-0.1,0.1-0.1C111.3,42,111.3,42.1,111.3,42.1L111.3,42.1
				C111.3,42.1,111.3,42.1,111.3,42.1z M115.6,37.4c-0.1,0-0.1,0-0.1,0.1L115.6,37.4C115.6,37.5,115.6,37.5,115.6,37.4L115.6,37.4z
				 M111.8,41.6L111.8,41.6L111.8,41.6C111.8,41.6,111.8,41.6,111.8,41.6c0.1-0.1,0.1-0.1,0.2-0.1l0.2-0.2c0,0-0.1,0.1-0.2,0.1
				C111.9,41.5,111.8,41.6,111.8,41.6 M111.5,41.8C111.6,41.8,111.6,41.8,111.5,41.8C111.6,41.8,111.6,41.8,111.5,41.8l0.1-0.1
				L111.5,41.8L111.5,41.8z M111.5,41.9C111.5,41.9,111.5,41.9,111.5,41.9C111.5,41.9,111.5,41.9,111.5,41.9
				C111.4,41.9,111.4,41.9,111.5,41.9c-0.1,0.1-0.1,0.1-0.1,0.1L111.5,41.9C111.5,41.9,111.5,41.9,111.5,41.9 M101.3,41.1
				L101.3,41.1L101.3,41.1L101.3,41.1L101.3,41.1z M94,40.8L94,40.8c-0.1,0-0.1,0-0.1-0.1l0.2-0.6c0.6-1.4,1.4-2.6,2.2-3.7
				c0.1-0.2,0.3-0.3,0.4-0.5c0.1-0.2,0.3-0.3,0.5-0.4l0.1,0c0.1,0.1,0.1,0.1,0.1,0.1c0,0.1,0,0.1,0,0.1c0,0,0,0.1,0,0.1
				c-0.1,0.1-0.1,0.2-0.2,0.3c-0.1,0.1-0.1,0.2-0.2,0.3c-0.2,0.3-0.3,0.6-0.5,0.8c-0.2,0.3-0.3,0.5-0.4,0.8c0,0.1,0,0.1-0.1,0.1
				c0,0,0,0-0.1,0.1c-0.3,0.4-0.5,0.7-0.8,1c-0.2,0.3-0.5,0.7-0.8,1c-0.1,0.1-0.2,0.2-0.2,0.3C94.2,40.6,94.1,40.7,94,40.8L94,40.8
				L94,40.8z M92.5,34.2c0,0.1,0,0.1,0,0.2c0,0,0,0.1-0.1,0.1C92.4,34.3,92.4,34.2,92.5,34.2c-0.1-0.2-0.1-0.3-0.1-0.4
				c0.1,0.1,0.1,0.1,0.1,0.1v0.1C92.5,34.1,92.5,34.2,92.5,34.2 M92.2,34.8L92.2,34.8l0.1-0.2c0,0,0,0.1,0,0.2
				C92.4,34.7,92.3,34.8,92.2,34.8L92.2,34.8z M93.9,33.9C93.9,34,93.9,34,93.9,33.9c-0.1,0.4-0.2,0.7-0.5,0.9c0,0,0,0,0,0l0,0
				c0.1-0.2,0.1-0.3,0.2-0.4c0.1-0.1,0.1-0.3,0.2-0.4C93.8,33.9,93.8,33.9,93.9,33.9 M93.9,29.3c0.1-0.7,0.2-1.4,0.4-2
				c0.1-0.1,0.1-0.3,0.1-0.4c0-0.1,0.1-0.3,0.1-0.4c0.1-0.1,0.1-0.3,0.1-0.4c0-0.1,0.1-0.3,0.1-0.4c0.1-0.5,0.2-1.1,0.4-1.6
				s0.3-1.1,0.5-1.6c0-0.1,0.1-0.1,0.1-0.2s0.1-0.1,0.1-0.2c0.1,0,0.1,0,0.1,0c0.1,0,0.1,0,0.1,0.1c0.1,0.3,0.1,0.4,0.1,0.5v0.8
				c0,0.5,0,1.1-0.1,1.6c-0.1,0.5-0.2,1-0.3,1.6c-0.1,0.5-0.3,1.1-0.4,1.6c-0.2,0.5-0.4,1.1-0.6,1.6c-0.1,0.3-0.2,0.6-0.3,0.9
				c-0.1,0.3-0.2,0.6-0.3,0.9c-0.1,0.2-0.1,0.4-0.2,0.5c-0.1,0.2-0.2,0.3-0.2,0.5h-0.1c-0.1,0-0.1,0-0.1-0.1c0-0.2,0-0.5,0-0.7
				c0-0.2,0.1-0.5,0.1-0.7C93.6,30.7,93.8,30,93.9,29.3 M96.5,24.3c0-0.1,0-0.2,0-0.3c0-0.1,0-0.2,0-0.3c0-0.1,0.1-0.2,0.1-0.3
				s0-0.2,0-0.3c0,0,0,0,0.1,0h0c0,0.1,0,0.2,0,0.4s0,0.2,0,0.4c0,0.3,0,0.6-0.1,0.9c0,0.3-0.1,0.6-0.1,0.9
				c-0.1,0.3-0.1,0.5-0.2,0.8c-0.1,0.2-0.1,0.5-0.2,0.8c-0.1,0.3-0.1,0.6-0.2,0.8c-0.1,0.3-0.1,0.6-0.3,0.8
				c-0.1,0.3-0.1,0.5-0.2,0.8c-0.1,0.2-0.2,0.5-0.3,0.8s-0.2,0.5-0.2,0.8c-0.1,0.2-0.2,0.5-0.3,0.8c0,0.1-0.1,0.2-0.2,0.3
				c0,0,0,0-0.1,0c0,0,0-0.1,0-0.1c0-0.1,0-0.3,0-0.5c0.2-0.4,0.3-0.7,0.4-1.1c0.1-0.4,0.2-0.7,0.4-1.1c0.1-0.3,0.2-0.6,0.2-0.8
				c0.1-0.3,0.2-0.6,0.2-0.8c0.1-0.4,0.2-0.9,0.3-1.3c0.1-0.4,0.2-0.9,0.3-1.3C96.4,24.9,96.5,24.6,96.5,24.3 M94.3,32.9L94.3,32.9
				L94.3,32.9L94.3,32.9z M101.1,40.5c0.3-0.4,0.6-0.8,0.8-1c0.2-0.2,0.4-0.5,0.5-0.7c0.2-0.2,0.2-0.3,0.2-0.4
				c0.1-0.1,0.2-0.2,0.3-0.5c0.1-0.3,0.1-0.5,0.1-0.6c-0.1-0.1-0.2,0-0.4,0.2c-0.2,0.2-0.3,0.4-0.3,0.5c-0.1,0.2-0.2,0.5-0.5,0.8
				c-0.3,0.4-0.5,0.7-0.8,1.1c-0.3,0.4-0.6,0.7-0.8,1.1c-0.3,0.3-0.5,0.6-0.6,0.7c-0.4,0.4-0.7,0.7-1.1,1c-0.3,0.3-0.7,0.7-1.1,1
				c-0.2,0.2-0.4,0.3-0.5,0.4c-0.2,0.1-0.4,0.3-0.6,0.4c-0.1,0.1-0.2,0.1-0.3,0.1c-0.1,0-0.2,0.1-0.3,0.1c-0.1,0-0.2,0-0.3-0.2
				c-0.1-0.1-0.1-0.1-0.1-0.2c0-0.1-0.1-0.1-0.1-0.2c-0.1-0.2-0.2-0.5-0.3-0.8c-0.2-0.3-0.2-0.5-0.2-0.8c0-0.2,0-0.3-0.1-0.5
				s0-0.4,0.2-0.6c0.1-0.1,0.1-0.1,0.2-0.2s0.1-0.1,0.2-0.2c0.3-0.3,0.6-0.6,0.9-0.9c0.3-0.3,0.5-0.7,0.7-1.1
				c0.1-0.1,0.1-0.2,0.2-0.3c0.1-0.1,0.2-0.2,0.3-0.3c0.2-0.3,0.4-0.6,0.6-1c0.2-0.3,0.4-0.7,0.6-1c0.1-0.1,0.1-0.3,0.2-0.5
				c0.1-0.2,0.1-0.5,0.1-0.7c0-0.2,0-0.4,0.1-0.7c0-0.3-0.1-0.6-0.4-0.7c-0.1,0-0.1,0-0.1-0.1c0,0,0,0-0.1-0.1
				c-0.1-0.1-0.3-0.1-0.5,0C97.5,34,97.4,34,97.4,34c-0.1,0-0.1,0-0.2,0.1c-0.4,0.3-0.7,0.6-1,0.9c-0.3,0.4-0.7,0.7-0.9,1.1
				s-0.6,0.8-0.8,1.2c-0.2,0.3-0.4,0.6-0.6,0.9c-0.2,0.3-0.3,0.6-0.5,0.9c-0.1,0.1-0.1,0.2-0.2,0.3c-0.1,0.1-0.1,0.2-0.2,0.3
				c0,0-0.1,0-0.2,0c-0.1,0-0.1,0-0.1-0.1c0-0.3,0-0.6,0-0.9c0-0.3,0-0.6,0.1-0.9c0-0.2,0.1-0.4,0.1-0.6c0-0.2,0.1-0.4,0.2-0.6
				c0.1-0.2,0.2-0.4,0.2-0.5c0.1-0.2,0.2-0.4,0.2-0.6c0.1-0.1,0.1-0.2,0.2-0.4c0.1-0.1,0.1-0.2,0.2-0.4c0.1-0.1,0.1-0.1,0.1-0.2
				c0-0.1,0-0.1,0.1-0.2c0.1-0.3,0.2-0.6,0.3-0.9c0.1-0.3,0.2-0.6,0.3-0.9c0-0.1,0.1-0.1,0.1-0.2c0-0.1,0-0.1,0-0.2
				c0-0.2,0.1-0.4,0.2-0.7c0.1-0.2,0.2-0.4,0.2-0.6c0.1-0.2,0.1-0.4,0.3-0.6c0-0.1,0-0.1,0.1-0.2c0-0.1,0-0.1,0.1-0.2
				c0.1-0.3,0.1-0.5,0.2-0.7c0.1-0.2,0.1-0.5,0.1-0.7c0-0.1,0-0.1,0-0.1c0,0,0-0.1,0-0.1c0.2-0.5,0.3-0.9,0.4-1.4
				c0.1-0.5,0.2-1,0.3-1.4c0.2-1,0.2-2.1,0.2-3.2c0-0.3-0.1-0.5-0.3-0.7c-0.2-0.2-0.3-0.4-0.5-0.5c-0.2-0.1-0.3-0.2-0.4-0.2
				c-0.1,0-0.3,0-0.5,0c0,0-0.1,0-0.1,0c-0.1,0.1-0.2,0.1-0.2,0.1c-0.1,0-0.1,0.1-0.2,0.2c0,0.2-0.1,0.3-0.2,0.3
				c-0.1,0.1-0.2,0.2-0.3,0.3c-0.1,0.3-0.2,0.5-0.3,0.7c-0.1,0.2-0.2,0.5-0.2,0.8c-0.2,0.5-0.3,1-0.5,1.5s-0.3,1-0.4,1.5
				c-0.2,0.7-0.3,1.4-0.4,2c-0.1,0.7-0.3,1.4-0.4,2.1c-0.1,0.6-0.2,1.2-0.2,1.8c-0.1,0.6-0.1,1.2-0.2,1.8c0,0.1,0,0.2,0,0.2
				c0,0.1,0,0.2,0,0.3l-0.1,1c0,0.2-0.1,0.5-0.1,0.7c0,0.2,0,0.5,0,0.7c0,0.1,0,0.5-0.1,1.1c-0.1,0.6-0.1,1.3-0.1,2
				c0,0.7-0.1,1.3-0.1,2c0,0.6-0.1,0.9-0.1,1c0,0.4,0,0.7,0.1,1.1c0,0.4,0.1,0.7,0.1,1.1c0,0.1,0.1,0.2,0.4,0.3
				c0.2,0.2,0.4,0.3,0.6,0.3c0.4,0.1,0.6,0,0.8-0.3c0.1-0.1,0.1-0.2,0-0.2c-0.1-0.2-0.1-0.4-0.2-0.6c0-0.2-0.1-0.4-0.1-0.6
				c0-0.2,0-0.3,0-0.4c0-0.1,0.1-0.3,0.2-0.4c0.1,0,0.2,0.1,0.2,0.2c0.1,0.1,0.2,0.3,0.3,0.6c0.2,0.3,0.3,0.5,0.3,0.6
				c0.2,0.3,0.4,0.6,0.7,0.7c0.2,0.1,0.4,0.3,0.6,0.4c0.2,0.2,0.4,0.2,0.7,0.2c0.1,0,0.1,0,0.2,0c0.1,0,0.1,0,0.2,0
				c0.2-0.1,0.4-0.2,0.6-0.2c0.2-0.1,0.4-0.1,0.6-0.2c0.3-0.1,0.6-0.3,0.9-0.5c0.2-0.2,0.3-0.3,0.3-0.3c0.5-0.4,0.9-0.9,1.2-1.4
				c0.1-0.2,0.2-0.3,0.3-0.4s0.2-0.3,0.4-0.4c0.1-0.1,0.1-0.1,0.2-0.3c0.1-0.1,0.1-0.1,0.1-0.2c0-0.1,0-0.1,0.1-0.2
				c0.1-0.1,0.2-0.3,0.3-0.4s0.1-0.3,0.2-0.4c0,0,0,0,0,0C100.9,41,100.9,40.8,101.1,40.5 M87.9,37.8c0,0.1-0.1,0.2-0.2,0.5
				c-0.1,0.1-0.2,0.2-0.2,0.4c-0.1,0.1-0.2,0.2-0.2,0.4c-0.8,1.1-1.7,2.1-2.7,3h-0.1c-0.1-0.1-0.1-0.1-0.1-0.2
				c0.1-0.2,0.1-0.4,0.2-0.5c0.1-0.2,0.1-0.4,0.2-0.5c0.3-0.7,0.6-1.4,1-2.1c0.1-0.3,0.3-0.5,0.4-0.8s0.4-0.5,0.6-0.7
				c0.2-0.2,0.5-0.4,0.7-0.5c0.2-0.1,0.3-0.1,0.4,0c0.2,0.1,0.3,0.2,0.3,0.4c0,0,0,0,0,0c0,0,0,0,0,0C88,37.6,87.9,37.8,87.9,37.8
				 M88,39.1C88.1,39.1,88.1,39.1,88,39.1L88,39.1z M87.2,40.6c-0.2,0.3-0.5,0.6-0.7,0.8c0,0-0.1,0-0.1,0h0l-0.1-0.2l0,0
				c0-0.1,0.1-0.2,0.2-0.3c0.2-0.2,0.4-0.5,0.6-0.7c0.2-0.3,0.4-0.5,0.6-0.8c0,0,0.1,0,0.1-0.1c0,0,0.1,0,0.1-0.1c0,0.1,0,0.2,0,0.3
				C87.6,40,87.4,40.3,87.2,40.6 M83.7,42.7c-0.1,0.2-0.2,0.2-0.3,0.3h-0.2c-0.1-0.1-0.1-0.1-0.1-0.2c0.1-0.4,0.2-0.7,0.3-1.1
				c0.1-0.4,0.2-0.7,0.4-1.1c0.2-0.3,0.3-0.6,0.3-0.9c0.1-0.4,0.3-0.8,0.5-1.1c0.2-0.3,0.5-0.7,0.7-1c0.1-0.1,0.2-0.2,0.3-0.3
				s0.3-0.2,0.4-0.3h0.2c-0.4,0.5-0.7,1-1,1.6c-0.3,0.6-0.6,1.1-0.8,1.7c-0.1,0.3-0.3,0.7-0.4,1c-0.1,0.3-0.3,0.7-0.4,1L83.7,42.7z
				 M83.1,44.8C83.1,44.7,83.1,44.7,83.1,44.8l0-0.2v-0.3c0-0.1,0-0.2,0.1-0.2c0,0,0.1,0,0.1,0c0,0,0,0,0.1,0c0,0,0,0,0,0
				c0.1,0.2,0,0.4-0.1,0.6C83.2,44.8,83.2,44.8,83.1,44.8 M81.7,41.7c0.1,0.1,0.1,0.2,0.1,0.2c0,0.1,0,0.1,0.1,0.2
				c0,0.1,0,0.2,0,0.4c0,0.2,0,0.4,0,0.7C81.7,42.7,81.7,42.1,81.7,41.7 M81.8,44c-0.1-0.1-0.1-0.1-0.1-0.1v-0.2c0,0,0.1,0,0.1,0
				c0,0,0.1,0,0.1,0.1C81.9,43.8,81.9,43.9,81.8,44C81.9,44,81.9,44,81.8,44 M81.7,46C81.7,46,81.7,46,81.7,46
				C81.7,46,81.7,46,81.7,46l0-0.5c0-0.1,0-0.3,0.1-0.4c0-0.1,0-0.3,0.1-0.4c0.1,0.2,0.1,0.4,0.1,0.6c0,0.2,0,0.4-0.1,0.6
				C81.8,46,81.8,46.1,81.7,46 M88.5,36.3c-0.1,0-0.2-0.1-0.2-0.1c-0.5-0.3-1-0.3-1.6-0.1c-0.3,0.1-0.5,0.2-0.7,0.4
				c-0.2,0.1-0.4,0.3-0.6,0.5c-0.5,0.5-0.8,1-1.1,1.6c-0.2,0.3-0.4,0.7-0.5,1c-0.2,0.3-0.3,0.7-0.4,1c0,0,0,0.1-0.1,0.2
				c0-0.1-0.1-0.1-0.1-0.2c0-0.1,0-0.1,0-0.2c0-0.7,0-1.5,0.1-2.2c0.1-0.3,0.1-0.5,0.1-0.8c0-0.2,0-0.5-0.1-0.8
				c-0.1-0.2-0.1-0.4-0.2-0.6c-0.1-0.2-0.2-0.3-0.3-0.3c-0.1,0-0.1,0-0.2-0.1c-0.1,0-0.1,0-0.2-0.1c-0.2-0.1-0.4-0.1-0.6-0.1
				s-0.3,0.1-0.4,0.3c0,0,0,0.1-0.1,0.1c-0.1,0.2-0.2,0.4-0.2,0.6c0.1,0.2,0.1,0.5,0.1,0.7s0,0.4,0,0.6c0,0.1,0,0.2,0,0.3
				c0,0.1,0,0.2,0,0.3c0,0.2,0,0.3,0,0.5c0,0.2,0,0.3,0,0.5v1.9c0,0.7,0,1.3,0.1,2c0,0.7,0,1.3-0.1,2c0,0.1,0,0.2,0,0.3s0,0.2,0,0.3
				v0.7c0,0.4,0,0.9,0,1.3c0,0.4,0,0.8,0,1.3v1l-0.1,2.4C81,53,81,53.6,81,54.1c0,0.5,0,1,0,1.5c0,0.2,0.1,0.4,0.2,0.5
				c0.1,0.1,0.1,0.1,0.1,0.2c0,0.1,0.1,0.1,0.1,0.2c0,0.1,0,0.1,0.1,0.1c0.2,0,0.4,0,0.5,0.1c0.1,0.1,0.2,0.1,0.2,0.1h0.3
				c0.3-0.1,0.4-0.2,0.4-0.5c0-0.2,0-0.5-0.1-0.7c0-0.2,0-0.5,0-0.7c0-0.2,0-0.3,0-0.4c0-0.1,0-0.3-0.1-0.4c-0.1-0.2-0.1-0.4,0-0.6
				c0.2-0.5,0.2-1.1,0-1.7c-0.1-0.1-0.1-0.3,0-0.4c0.1-0.2,0.1-0.4,0.1-0.7V50c0-0.3,0-0.7,0-1c0-0.3,0-0.7,0.1-1
				c0.1-0.2,0.1-0.4,0.1-0.6c0-0.2,0.1-0.4,0.1-0.6c0-0.4,0-0.8,0.1-1.1c0.1-0.3,0.2-0.7,0.2-1.1c0.1-0.3,0.2-0.4,0.4-0.4
				c0.3,0,0.5-0.1,0.7-0.2c0.2-0.1,0.4-0.2,0.5-0.3c0.1,0,0.1-0.1,0.1-0.1c0,0,0-0.1,0.1-0.1c0.5-0.4,0.9-0.8,1.4-1.3
				c0.4-0.5,0.8-0.9,1.3-1.4c0.1-0.2,0.2-0.3,0.4-0.5s0.2-0.3,0.3-0.5c0.1-0.2,0.2-0.5,0.3-0.7c0.1-0.2,0.2-0.5,0.3-0.7
				c0.1-0.2,0.1-0.4,0.1-0.6s0-0.4,0.1-0.6c0-0.2,0-0.4-0.2-0.5c-0.1-0.2-0.3-0.3-0.5-0.3C88.6,36.3,88.6,36.3,88.5,36.3"/>
		</g>
		<g>
			<defs>
				<rect id="SVGID_3_" x="43.4" y="20.8" width="84.3" height="36.1"/>
			</defs>
			<clipPath id="SVGID_4_">
				<use xlink:href="#SVGID_3_"  style="overflow:visible;"/>
			</clipPath>
			<path class="st1" d="M78.8,42.5c0,0.1,0,0.1-0.1,0.1L78.8,42.5z M73.9,40.9C73.9,40.9,73.9,40.9,73.9,40.9
				C73.9,40.9,73.9,40.8,73.9,40.9L73.9,40.9z M73.9,42.3L73.9,42.3L73.9,42.3L73.9,42.3z M81.4,38.3c-0.1,0-0.2,0.1-0.2,0.2l-1,1.4
				c-0.4,0.5-0.8,1-1.2,1.5c-0.4,0.5-0.8,1-1.3,1.4c-0.2,0.2-0.4,0.4-0.6,0.5c-0.2,0.1-0.4,0.3-0.7,0.4c-0.2,0.2-0.4,0.2-0.5,0.3
				C75.7,44,75.7,44,75.6,44c-0.1,0-0.3-0.1-0.4-0.3c-0.1-0.3-0.2-0.7-0.2-1c0-0.5,0-1.1,0.1-1.7c0.1-0.3,0.1-0.5,0.1-0.8
				s0.1-0.5,0.1-0.8c0-0.1,0.1-0.3,0.1-0.4c0-0.2,0.1-0.3,0.1-0.4c0.1-0.1,0.1-0.2,0.1-0.4c0-0.1,0.1-0.2,0.1-0.4
				c0.1-0.1,0.1-0.2,0.1-0.3s0-0.2,0-0.3c0-0.1,0-0.2-0.1-0.3c-0.2-0.2-0.3-0.2-0.5-0.3c-0.4-0.1-0.8-0.1-1.1,0.1
				c-0.1,0.1-0.2,0.2-0.3,0.4c0,0.1,0,0.2,0,0.3c-0.1,0.3-0.1,0.7-0.1,1c0,0.3-0.1,0.6-0.1,0.9c-0.1,0.5-0.1,1-0.1,1.4
				c0,0.5,0,0.9,0,1.4c0,0.4,0.1,0.7,0.2,1.1c0,0.1,0.1,0.1,0.1,0.2c0,0.1,0.1,0.1,0.1,0.2c0.1,0.2,0.3,0.4,0.5,0.6
				c0.2,0.2,0.4,0.3,0.7,0.4c0.1,0.1,0.2,0.1,0.3,0.1c0.1,0,0.2,0,0.3,0.1c0.3,0,0.6,0,0.9-0.1c0.1-0.1,0.3-0.1,0.6-0.2
				c0.2-0.1,0.3-0.1,0.4-0.2l0.5-0.5c0.2-0.1,0.3-0.3,0.4-0.4c0.1-0.2,0.3-0.3,0.4-0.4c0.1-0.2,0.2-0.3,0.3-0.4
				c0.1-0.1,0.2-0.3,0.4-0.4c0,0,0-0.1,0-0.1c0,0,0-0.1,0-0.1c-0.1,0.1-0.1,0.1-0.2,0.1c-0.1,0-0.1,0.1-0.2,0.1
				c-0.1,0-0.1,0.1-0.2,0.1c-0.1,0-0.1,0-0.2,0c0-0.1,0-0.2,0-0.2l0.2-0.4l1.8-2.5l0.2-0.3c0.1-0.1,0.3-0.1,0.5,0c0,0,0.1,0,0.1,0
				c0.1-0.1,0.1-0.2,0.2-0.3l0.1-0.5c0,0,0-0.1,0-0.1c0,0-0.1,0-0.1,0C81.6,38.2,81.5,38.3,81.4,38.3 M79.7,42.1L79.7,42.1
				C79.7,42,79.7,42,79.7,42.1c-0.1,0-0.1,0-0.1,0c0,0-0.1,0-0.1,0l0,0h0L79.7,42.1z M74.3,34.9c0,0.2,0.1,0.3,0.3,0.3
				c0.2,0.1,0.3,0.1,0.5,0c0.1,0,0.1-0.1,0.2-0.2c0.2-0.4,0.4-0.7,0.6-1.1c0.2-0.3,0.4-0.7,0.5-1.1c0.1-0.3,0.1-0.5-0.1-0.8
				c-0.1-0.1-0.1-0.1-0.2-0.2c-0.1-0.1-0.2-0.1-0.3-0.1c-0.3-0.1-0.6-0.1-1,0c-0.1,0-0.2,0.1-0.3,0.2c-0.1,0.1-0.1,0.2-0.2,0.4
				L74.3,34h0L74.3,34.9L74.3,34.9z M79.7,41.9L79.7,41.9C79.8,42,79.8,41.9,79.7,41.9L79.7,41.9z"/>
		</g>
		<g>
			<defs>
				<rect id="SVGID_5_" x="43.4" y="20.8" width="84.3" height="36.1"/>
			</defs>
			<clipPath id="SVGID_6_">
				<use xlink:href="#SVGID_5_"  style="overflow:visible;"/>
			</clipPath>
			<path class="st2" d="M73.1,40.7c0.1-0.1,0.2-0.1,0.2-0.2C73.2,40.6,73.2,40.6,73.1,40.7 M73.4,40.5L73.4,40.5
				C73.4,40.4,73.4,40.4,73.4,40.5 M73.3,40.5L73.3,40.5C73.3,40.5,73.3,40.5,73.3,40.5C73.3,40.5,73.3,40.5,73.3,40.5 M73.5,40.3
				c0.1,0,0.1-0.1,0.1-0.1L73.5,40.3z M73.5,40.3L73.5,40.3L73.5,40.3C73.4,40.4,73.5,40.4,73.5,40.3L73.5,40.3z M73.7,40.1
				L73.7,40.1L73.7,40.1L73.7,40.1L73.7,40.1z M71,42.3C71,42.3,71,42.3,71,42.3L71,42.3z M62.1,35.1c0-0.1,0-0.1,0-0.1
				c0,0,0-0.1,0-0.2c0-0.2,0.1-0.3,0.1-0.6c0-0.2,0.1-0.5,0.1-0.7c0.1-0.2,0.1-0.4,0.1-0.5s0.1-0.4,0.2-0.5c0-0.1,0-0.1,0-0.2v-0.2
				c0-0.1,0-0.2,0-0.2c0.1-0.2,0.1-0.4,0.1-0.5c0-0.2,0.1-0.4,0.1-0.5l0.1-0.2H63c0,0,0,0.1,0,0.1v0.3c0,0.1,0,0.2-0.1,0.3
				s-0.1,0.2-0.1,0.3s0,0.2-0.1,0.3c-0.1,0.2-0.1,0.3-0.1,0.5c0,0.2-0.1,0.3-0.1,0.5c-0.1,0.4-0.1,0.8-0.2,1.2
				c-0.1,0.4-0.1,0.8-0.2,1.2c0,0-0.1,0-0.1,0C62.1,35.2,62.1,35.1,62.1,35.1 M61.7,40.1l-0.1,0.1c-0.1,0-0.1,0-0.1-0.1
				c0-0.1,0-0.2,0-0.3c0-0.1,0-0.1,0.1-0.1c0,0,0.1,0,0.1,0c0,0,0,0,0,0.1c0,0,0,0,0,0.1C61.7,40,61.7,40.1,61.7,40.1 M61.5,41
				C61.5,40.9,61.6,40.9,61.5,41l0.1,0.5c0,0.2,0,0.3-0.1,0.5V41z M61.5,42.7L61.5,42.7C61.5,42.6,61.5,42.6,61.5,42.7
				C61.5,42.6,61.5,42.7,61.5,42.7C61.5,42.7,61.5,42.7,61.5,42.7z M63.4,31.5c0.1-0.2,0.1-0.4,0.1-0.7c0.1-0.3,0.2-0.6,0.2-0.8
				c0.1-0.3,0.2-0.5,0.2-0.8c0.1-0.1,0.1-0.3,0.1-0.4s0.1-0.3,0.1-0.4c0.1-0.4,0.2-0.9,0.4-1.3c0.2-0.4,0.3-0.8,0.5-1.3
				c0,0,0.1-0.1,0.2-0.1h0c0,0.1,0,0.1,0,0.1s0,0.1,0,0.1c-0.1,0.7-0.3,1.3-0.4,2c-0.1,0.6-0.3,1.3-0.5,1.9
				c-0.1,0.4-0.3,0.7-0.4,1.1c-0.1,0.4-0.3,0.7-0.4,1.1c-0.1,0.1-0.1,0.3-0.2,0.4c-0.1,0.1-0.1,0.3-0.2,0.4C63.3,33,63.3,33,63.3,33
				c0,0,0,0,0-0.1c0,0,0-0.1,0-0.2c0.1-0.2,0.1-0.4,0.1-0.5C63.3,32,63.4,31.7,63.4,31.5 M63.3,29.5L63.3,29.5L63.3,29.5
				c-0.1-0.2,0-0.3,0-0.3C63.3,29.3,63.3,29.5,63.3,29.5 M63.4,29.1c0-0.1,0-0.1,0-0.1C63.4,29,63.4,29,63.4,29.1L63.4,29.1z
				 M63.6,28.3L63.6,28.3L63.6,28.3C63.5,28.2,63.5,28.2,63.6,28.3L63.6,28.3z M65.7,28c-0.1,0.5-0.2,0.9-0.3,1.4
				c-0.1,0.5-0.2,0.9-0.4,1.4c-0.1,0.2-0.2,0.4-0.2,0.7c-0.1,0.2-0.2,0.5-0.3,0.7c-0.1,0.1-0.1,0.2-0.2,0.2c0-0.2,0-0.4,0.1-0.6
				c0.1-0.3,0.2-0.6,0.3-0.8c0.1-0.3,0.2-0.6,0.2-0.8c0-0.1,0-0.1,0.1-0.2c0.1-0.1,0.1-0.3,0.2-0.4c0-0.2,0.1-0.3,0.1-0.5
				c0.1-0.2,0.1-0.4,0.1-0.5c0-0.2,0.1-0.3,0.2-0.5c0,0,0,0,0.1,0c0,0,0,0,0.1,0C65.7,27.9,65.7,28,65.7,28 M65.9,26.9
				C65.9,26.9,65.9,26.9,65.9,26.9C65.9,26.9,65.9,27,65.9,26.9l0,0.2c0,0,0,0.1,0,0.1c0,0,0,0.1,0,0.1c0,0-0.1,0-0.1,0c0,0,0,0,0,0
				s0,0,0,0C65.8,27.2,65.8,27.1,65.9,26.9L65.9,26.9z M66,26.4c-0.1-0.2-0.1-0.4,0-0.5c0-0.2,0.1-0.3,0.2-0.5
				C66.2,25.7,66.2,26.1,66,26.4 M64.2,32.5C64.2,32.4,64.3,32.4,64.2,32.5c0-0.1,0.1-0.1,0.1-0.1C64.3,32.4,64.3,32.5,64.2,32.5
				L64.2,32.5z M64,33.1C64.1,33.1,64.1,33,64,33.1L64,33.1L64,33.1C64,33.1,64,33.1,64,33.1 M63.9,33.3
				C63.9,33.3,64,33.3,63.9,33.3C64,33.2,64,33.2,63.9,33.3C64,33.3,64,33.3,63.9,33.3L63.9,33.3z M74,38.7
				c-0.2,0.1-0.5,0.3-0.7,0.5c-0.3,0.2-0.5,0.4-0.7,0.6c-0.2,0.2-0.5,0.4-0.7,0.6c-0.3,0.3-0.7,0.6-0.9,0.9s-0.6,0.6-0.9,0.9
				c-0.5,0.4-0.9,0.8-1.3,1c-0.2,0.2-0.4,0.3-0.7,0.4c-0.2,0.1-0.5,0.1-0.8,0.1c-0.2,0-0.3-0.1-0.3-0.2c-0.1-0.1-0.1-0.2-0.1-0.3
				c0-0.1,0-0.2,0-0.3v-0.7c0-0.2,0-0.5,0-0.7c0.1-0.3,0.1-0.6,0.1-0.8c0-0.3,0.1-0.5,0.1-0.8c0-0.1,0-0.2,0.1-0.4
				c0-0.1,0-0.2,0.1-0.4c0-0.1,0-0.1,0-0.2c0-0.1,0-0.1,0-0.2c-0.1-0.1-0.1-0.2-0.2-0.2c-0.1,0-0.2,0-0.3,0c-0.2,0-0.2-0.1-0.3-0.2
				c-0.1-0.1-0.2-0.2-0.3-0.2c-0.2,0-0.4,0.1-0.5,0.2c-0.6,0.5-1.2,1.1-1.7,1.7c-0.2,0.2-0.4,0.5-0.6,0.7c-0.2,0.2-0.4,0.5-0.6,0.7
				c-0.1,0.1-0.1,0.1-0.2,0.2h-0.1c0,0,0,0,0,0c-0.1-0.2-0.2-0.4-0.1-0.6c0.1-0.2,0.1-0.4,0.1-0.6s0.1-0.4,0.1-0.6
				c0-0.2,0-0.3,0-0.4c-0.1-0.2-0.1-0.4-0.1-0.7c0.1-0.2,0.1-0.4,0.1-0.5c0-0.2,0.1-0.4,0.2-0.5c0.1-0.3,0.3-0.6,0.4-0.8
				s0.3-0.5,0.4-0.8c0.3-0.6,0.5-1.1,0.8-1.7c0.2-0.6,0.5-1.2,0.7-1.8c0.1-0.2,0.1-0.4,0.2-0.5c0.1-0.2,0.1-0.3,0.2-0.5
				c0.2-0.6,0.4-1.2,0.5-1.9c0.2-0.6,0.3-1.2,0.4-1.9c0.1-0.6,0.2-1.1,0.3-1.7c0.1-0.6,0.2-1.1,0.3-1.7c0-0.2,0-0.3,0-0.4
				c0-0.1,0-0.3,0-0.4c0-0.2,0-0.3,0-0.4c-0.1-0.4-0.3-0.6-0.7-0.7c-0.3,0-0.6,0-0.8,0.2c-0.1,0.1-0.1,0.1-0.1,0.2
				c-0.1,0.2-0.2,0.4-0.4,0.4c-0.1,0-0.1,0-0.1,0.1c0,0,0,0-0.1,0.1c-0.2,0.6-0.5,1.2-0.8,1.9c-0.1,0.3-0.2,0.6-0.3,0.8
				c-0.1,0.3-0.2,0.6-0.3,0.9c-0.2,0.5-0.3,0.9-0.4,1.4c-0.1,0.5-0.3,0.9-0.4,1.4c-0.2,0.6-0.3,1.2-0.4,1.7
				c-0.1,0.6-0.2,1.1-0.3,1.7c-0.1,0.6-0.2,1.2-0.3,1.8c-0.1,0.6-0.2,1.2-0.2,1.8c0,0.2-0.1,0.3-0.1,0.4c0,0.1-0.1,0.3-0.1,0.4
				c-0.2,0.3-0.4,0.5-0.5,0.8s-0.4,0.5-0.6,0.7c-0.1,0.1-0.1,0.1-0.2,0.1c-0.1,0-0.1,0.1-0.2,0.1c-0.1,0.1-0.1,0.1,0,0.2
				c0,0.1,0.1,0.1,0.1,0.1c0.2,0.1,0.3,0.1,0.5,0.2c0.2,0.1,0.3,0.1,0.5,0c0,0,0.1,0,0.1,0c0,0,0,0.1,0,0.1v0.3v1.8
				c0,0.6,0,1.2,0,1.8c0,0.3,0.1,0.5,0.4,0.6c0.1,0.1,0.2,0.1,0.3,0.2c0.1,0.1,0.2,0.1,0.3,0.2c0.2,0.1,0.4,0.1,0.6,0
				c0.2,0,0.3-0.2,0.3-0.4c0-0.1,0-0.2,0-0.2c0-0.1,0-0.2,0.1-0.2c0.1-0.2,0.2-0.4,0.3-0.5c0.1-0.2,0.2-0.4,0.3-0.6
				c0.1-0.2,0.3-0.4,0.4-0.6c0.2-0.2,0.3-0.4,0.4-0.6c0.1-0.1,0.2-0.2,0.2-0.3c0.1-0.1,0.2-0.2,0.3-0.3c0,0,0,0,0.1,0c0,0,0,0,0.1,0
				H65c0.1,0.1,0.1,0.1,0.1,0.2c0,0.2,0,0.3,0,0.5c0,0.2,0,0.3,0,0.5c0,0.3,0,0.5,0.1,0.8c0.1,0.2,0.2,0.5,0.5,0.7
				c0.1,0.1,0.1,0.1,0.2,0.2c0.1,0.1,0.1,0.1,0.2,0.2l0.3,0.2c0.4,0.2,0.8,0.3,1.1,0.4c0.6,0.2,1.2,0.2,1.7-0.1
				c0.1-0.1,0.3-0.2,0.4-0.2c0.1-0.1,0.3-0.2,0.4-0.3c0.3-0.3,0.6-0.5,0.9-0.8s0.6-0.5,0.8-0.8c0.1-0.1,0.1-0.1,0.2-0.2
				c0.1-0.1,0.1-0.1,0.2-0.2c0.2-0.2,0.4-0.4,0.6-0.7c0.2-0.2,0.3-0.5,0.5-0.7v-0.1c-0.1,0-0.3,0.1-0.4,0.2
				c-0.2,0.2-0.4,0.4-0.6,0.6c-0.2,0.2-0.4,0.3-0.6,0.5c-0.1,0.1-0.1,0.1-0.1,0.1s-0.1,0-0.1,0c0.1-0.2,0.2-0.4,0.3-0.5l0.5-0.5
				c0.4-0.4,0.7-0.7,1.1-1c0.4-0.3,0.8-0.6,1.2-0.9c0,0,0.1,0,0.1-0.1c0.1-0.1,0.1-0.2,0-0.3C74.3,38.8,74.2,38.8,74,38.7
				 M56.9,44.8L56.9,44.8L56.9,44.8L56.9,44.8L56.9,44.8z M51.2,25.1L51.2,25.1L51.2,25.1l0.2-0.2l0,0h0L51.2,25.1z M51.7,24.9
				c0.1-0.1,0.1-0.1,0.2-0.2c-0.1,0-0.2,0.1-0.4,0.2C51.5,25,51.6,24.9,51.7,24.9 M51.9,24.7L51.9,24.7
				C51.9,24.7,51.9,24.7,51.9,24.7C51.9,24.7,51.9,24.7,51.9,24.7l0.2-0.2c0,0,0,0,0,0c0,0-0.1,0-0.1,0L51.9,24.7z M58.8,41.7
				L58.5,42c0,0.1-0.1,0.1-0.1,0.1c0,0-0.1,0-0.1,0.1c-0.1,0.1-0.1,0.1,0,0.2c-0.2,0.3-0.4,0.5-0.7,0.7c-0.3,0.2-0.5,0.3-0.8,0.5
				c0,0-0.1,0-0.1,0c-0.1,0-0.1,0-0.1,0c0,0,0,0,0-0.1l0.1-0.2c0.3-0.4,0.7-0.7,0.9-1.1c0.3-0.3,0.6-0.7,1-1
				c0.1-0.1,0.2-0.1,0.2-0.1c0,0,0.1,0,0.1,0c0.1,0,0.1,0.1,0,0.2L58.8,41.7z M58.6,42.2V42c0.1,0,0.1,0,0.2,0L58.6,42.2z
				 M58.3,42.4v-0.2h0.2L58.3,42.4z M56.4,44.9c-0.1,0.1-0.2,0.1-0.3,0.1L56.4,44.9z M60.5,40.4c0-0.1,0.1-0.2,0.1-0.2
				c0-0.1,0.1-0.2,0.1-0.2c0-0.1,0-0.1-0.1-0.1c-0.1,0-0.2,0-0.2,0c-0.1,0-0.2,0.1-0.2,0.1c-0.1,0-0.1,0-0.2,0c0,0,0-0.1,0-0.2
				c0.1-0.2,0-0.2-0.2,0s-0.4,0.5-0.7,0.9c-0.4,0.4-0.7,0.8-1.2,1.2c-0.4,0.4-0.8,0.8-1.2,1.2c-0.3,0.3-0.6,0.5-0.9,0.8
				c-0.3,0.2-0.6,0.5-1,0.8c-0.5,0.4-1,0.7-1.5,0.9c-0.3,0.1-0.6,0.3-0.8,0.4c-0.3,0.2-0.5,0.3-0.8,0.4c-0.3,0.2-0.7,0.2-1.2,0.2
				c-0.5,0-0.9,0-1.2,0.1c-0.1,0-0.3,0-0.5,0c-0.7,0-1.3-0.2-1.8-0.5c-0.3-0.2-0.5-0.3-0.7-0.6s-0.4-0.5-0.5-0.7
				c-0.1-0.2-0.2-0.4-0.3-0.6c-0.1-0.2-0.2-0.4-0.3-0.6c-0.2-0.3-0.3-0.6-0.3-0.9s-0.1-0.6-0.2-0.9c-0.1-0.4-0.1-0.7-0.1-1.1
				c0-0.4,0.1-0.7,0.1-1.1c0-0.1,0-0.2,0-0.2c0-0.1,0-0.2,0-0.2c0.1-0.4,0.1-0.7,0.2-1c0.1-0.3,0.2-0.7,0.2-1l0.8-2
				c0.3-0.6,0.5-1.2,0.8-1.7c0.3-0.6,0.6-1.1,0.9-1.7c0.9-1.7,2.1-3.3,3.4-4.7l0.8-0.8c0.1-0.1,0.3-0.2,0.4-0.3
				c0.1-0.1,0.3-0.2,0.4-0.3c0.5-0.5,1.1-1,1.7-1.4l0.3-0.2c0.2-0.2,0.3-0.4,0.3-0.6l0.7-0.1l0.7-0.2c0.3-0.1,0.6-0.2,1-0.3
				c0.2-0.1,0.4-0.1,0.6-0.1s0.4,0.1,0.6,0.2l0.3,0.1c0.2,0.1,0.3,0.1,0.3,0.3c0.1,0.3,0.3,0.6,0.5,0.8c0.3,0.3,0.4,0.8,0.3,1.3
				c-0.1,0.1-0.1,0.3-0.1,0.4s0,0.3-0.1,0.4c-0.1,0.2,0,0.2,0.2,0.2l0.5-0.2c0.1-0.1,0.2-0.1,0.3-0.2c0.1-0.2,0.2-0.4,0.2-0.6
				c0-0.1,0-0.3,0.1-0.5c0.1-0.3,0-0.5-0.1-0.8l-0.4-0.9L60.6,23c-0.1-0.1-0.1-0.1-0.1-0.1c0,0-0.1-0.1-0.1-0.1
				c-0.3-0.3-0.6-0.5-1-0.7c-0.4-0.1-0.7-0.2-1.2-0.3c-0.2,0-0.3,0-0.4,0c-0.2,0-0.3,0-0.5,0c-0.3,0-0.6,0.1-0.8,0.1
				s-0.5,0.1-0.7,0.3c-0.1,0.1-0.2,0.1-0.3,0.2c-0.3,0.1-0.6,0.3-0.8,0.4c-0.3,0.1-0.6,0.3-0.8,0.4c-0.1,0.1-0.1,0.1-0.2,0.1
				c-0.1,0-0.1,0.1-0.2,0.1l-1.2,1l0.5-0.2c0,0,0,0,0,0c0,0,0,0,0,0.1c-0.1,0.1-0.3,0.2-0.4,0.3c-0.1,0.1-0.3,0.2-0.4,0.3
				c-0.2,0.1-0.4,0.3-0.5,0.4s-0.3,0.3-0.4,0.4c-0.3,0.2-0.5,0.5-0.7,0.7c-0.2,0.2-0.4,0.5-0.6,0.8c-0.4,0.5-0.8,0.9-1.1,1.4
				c-0.4,0.5-0.7,0.9-1.1,1.4c-0.1,0.1-0.2,0.2-0.2,0.3c-0.1,0.1-0.1,0.2-0.2,0.3c-0.2,0.4-0.4,0.7-0.6,1.1
				c-0.2,0.4-0.4,0.8-0.6,1.1c-0.2,0.4-0.4,0.9-0.6,1.3s-0.4,0.9-0.5,1.3c-0.1,0.4-0.3,0.7-0.4,1.1s-0.2,0.7-0.3,1.1
				c-0.1,0.4-0.2,0.7-0.2,1.1c-0.1,0.3-0.1,0.7-0.2,1.1c-0.1,0.4-0.1,0.9-0.1,1.3c0,0.4,0,0.8,0.2,1.2l0.1,0.7
				c0.1,0.4,0.2,0.8,0.3,1.1l0.3,0.7c0.5,1,1.2,1.6,2.1,2l1.4,0.5c0.4,0.1,0.8,0.2,1.2,0.2c0.1,0,0.1,0,0.1,0c0,0,0.1,0,0.1,0H50
				c0.1,0,0.2,0,0.3,0c0.1,0,0.2,0,0.3,0c0.4-0.1,0.7-0.1,1-0.2c0.3-0.1,0.7-0.1,1-0.2c0.3-0.1,0.7-0.2,1-0.3
				c0.3-0.1,0.6-0.3,0.9-0.5c0.4-0.2,0.8-0.4,1.1-0.7c0.4-0.2,0.7-0.5,1.1-0.8c-0.2,0-0.3,0-0.4,0c0.1-0.2,0.3-0.3,0.4-0.4
				c0.1-0.1,0.3-0.2,0.5-0.2l0.2-0.1c0.2-0.1,0.4-0.4,0.7-0.7c0.3-0.4,0.7-0.7,1-1.1c0.3-0.4,0.6-0.8,0.8-1.1
				c0.2-0.3,0.4-0.5,0.4-0.5C60.5,40.5,60.5,40.5,60.5,40.4 M49.8,26.6l0.2-0.2l0.2-0.2c0,0,0.1,0,0.1-0.1c0,0,0.1,0,0.1-0.1l0,0
				l0,0l-0.2,0.2l-0.2,0.2C49.9,26.5,49.9,26.5,49.8,26.6C49.9,26.5,49.8,26.6,49.8,26.6l-0.2,0.2l0,0l0,0L49.8,26.6z M48.2,28.5
				L48.2,28.5L48.2,28.5c-0.1,0-0.1,0-0.1,0.1c0,0,0,0-0.1,0.1l0,0c0,0,0,0,0,0c0,0,0,0,0-0.1L48.2,28.5z M47.4,29.6l0.1-0.3l0,0
				c0,0,0,0,0,0L47.4,29.6c-0.1,0-0.1,0.1-0.2,0.1l0,0c0,0,0,0,0,0L47.4,29.6z"/>
		</g>
	</g>
	<g>
		<g>
			<defs>
				<rect id="SVGID_7_" x="50.7" y="59" width="69.6" height="4.6"/>
			</defs>
			<clipPath id="SVGID_8_">
				<use xlink:href="#SVGID_7_"  style="overflow:visible;"/>
			</clipPath>
			<path class="st3" d="M120.3,63.6v-0.3h-2.9v-1.8h2.5v-0.3h-2.5v-1.7h2.8v-0.3h-3.2v4.4H120.3z M115.9,61.7v-2.6h-0.3v2.6
				c0,1.1-0.6,1.6-1.5,1.6c-0.9,0-1.5-0.6-1.5-1.6v-2.6h-0.3v2.6c0,1.2,0.8,1.9,1.8,1.9C115.2,63.6,115.9,63,115.9,61.7 M111.5,63.6
				v-0.3h-2.6v-4.1h-0.3v4.4H111.5z M107.4,63v-1.7h-1.8v0.3h1.5v1.3c-0.3,0.3-0.8,0.5-1.4,0.5c-1.2,0-1.9-0.9-1.9-2v0
				c0-1.1,0.8-2,1.8-2c0.7,0,1.1,0.2,1.4,0.5l0.2-0.2c-0.4-0.4-0.9-0.6-1.6-0.6c-1.3,0-2.2,1.1-2.2,2.3v0c0,1.2,0.8,2.3,2.2,2.3
				C106.3,63.6,106.9,63.3,107.4,63 M100.6,63.6v-0.3h-2.9v-1.8h2.5v-0.3h-2.5v-1.7h2.8v-0.3h-3.2v4.4H100.6z M96.3,62.4L96.3,62.4
				c0-0.7-0.4-1-1.5-1.2c-1.1-0.2-1.3-0.5-1.3-1v0c0-0.5,0.4-0.8,1.1-0.8c0.5,0,0.9,0.1,1.3,0.5l0.2-0.3c-0.5-0.4-0.9-0.5-1.5-0.5
				c-0.8,0-1.4,0.5-1.4,1.2v0c0,0.7,0.4,1,1.5,1.2c1,0.2,1.3,0.5,1.3,0.9v0c0,0.5-0.5,0.9-1.1,0.9c-0.7,0-1.1-0.2-1.6-0.7l-0.2,0.2
				c0.5,0.5,1.1,0.7,1.8,0.7C95.7,63.6,96.3,63.1,96.3,62.4 M91.9,61.4c0,1.1-0.8,2-1.9,2s-1.9-0.9-1.9-2v0c0-1.1,0.8-2,1.9-2
				C91.1,59.3,91.9,60.2,91.9,61.4L91.9,61.4z M92.3,61.3C92.3,61.3,92.3,61.3,92.3,61.3c0-1.2-0.9-2.3-2.2-2.3s-2.2,1.1-2.2,2.3v0
				c0,1.2,0.9,2.3,2.2,2.3C91.4,63.6,92.3,62.5,92.3,61.3 M86.7,60.5c0,0.7-0.6,1.1-1.4,1.1h-1.2v-2.2h1.3
				C86.2,59.4,86.7,59.8,86.7,60.5L86.7,60.5z M87,60.5L87,60.5c0-0.9-0.7-1.4-1.6-1.4h-1.6v4.4h0.3v-1.7h1.2
				C86.2,61.9,87,61.4,87,60.5 M82.3,60.4c0,0.6-0.6,1-1.3,1h-1.5v-2h1.5C81.9,59.4,82.3,59.8,82.3,60.4L82.3,60.4L82.3,60.4z
				 M82.8,63.6l-1.5-1.9c0.7-0.1,1.3-0.5,1.3-1.3v0c0-0.7-0.6-1.3-1.6-1.3h-1.9v4.4h0.3v-1.8H81l1.4,1.8L82.8,63.6L82.8,63.6z
				 M78,61.7v-2.6h-0.3v2.6c0,1.1-0.6,1.6-1.5,1.6c-0.9,0-1.5-0.6-1.5-1.6v-2.6h-0.3v2.6c0,1.2,0.8,1.9,1.8,1.9
				C77.2,63.6,78,63,78,61.7 M73.1,60.5c0,0.7-0.6,1.1-1.4,1.1h-1.2v-2.2h1.3C72.5,59.4,73.1,59.8,73.1,60.5L73.1,60.5z M73.4,60.5
				L73.4,60.5c0-0.9-0.7-1.4-1.6-1.4h-1.6v4.4h0.3v-1.7h1.2C72.6,61.9,73.4,61.4,73.4,60.5 M68.8,59.1h-0.3v4.4h0.3V59.1z
				 M67.4,59.4v-0.3H64v0.3h1.5v4.1h0.3v-4.1H67.4z M64,63.6v-0.3h-2.6v-4.1H61v4.4H64z M59.8,61.7v-2.6h-0.3v2.6
				c0,1.1-0.6,1.6-1.5,1.6c-0.9,0-1.5-0.6-1.5-1.6v-2.6h-0.3v2.6c0,1.2,0.8,1.9,1.8,1.9C59.1,63.6,59.8,63,59.8,61.7 M54.9,63.6
				v-4.4h-0.3l-1.8,2.6L51,59.1h-0.3v4.4H51v-3.8l1.8,2.6h0l1.8-2.6v3.8H54.9z"/>
		</g>
	</g>
	<g>
		<path d="M128.3,21.1h-0.9v-0.3h2.2v0.3h-0.9v2.7h-0.4V21.1z"/>
		<path d="M132.5,22.5c0-0.4-0.1-0.9,0-1.3h0c-0.1,0.4-0.2,0.7-0.4,1.1l-0.5,1.5h-0.3l-0.5-1.4c-0.1-0.4-0.3-0.8-0.4-1.2h0
			c0,0.4,0,0.9-0.1,1.3l-0.1,1.3h-0.4l0.2-3h0.5l0.5,1.5c0.1,0.4,0.2,0.7,0.3,1h0c0.1-0.3,0.2-0.6,0.3-1l0.5-1.5h0.5l0.2,3h-0.4
			L132.5,22.5z"/>
	</g>
</g>
</svg>
