<?xml version="1.0" encoding="utf-8"?>
<!-- Generator: Adobe Illustrator 24.0.0, SVG Export Plug-In . SVG Version: 6.00 Build 0)  -->
<svg version="1.1" id="Layer_1" xmlns="http://www.w3.org/2000/svg" xmlns:xlink="http://www.w3.org/1999/xlink" x="0px" y="0px"
	 viewBox="0 0 158.4 70.8" style="enable-background:new 0 0 158.4 70.8;" xml:space="preserve">
<style type="text/css">
	.st0{fill:none;stroke:#000000;stroke-width:0.5;stroke-miterlimit:10;}
	.st1{fill:#34A0A0;}
	.st2{enable-background:new    ;}
</style>
<g>
	<path class="st0" d="M18.5,17.9c-1.4,0-2.4,1.2-2.4,2.4v30.1c0,1.4,1.2,2.4,2.4,2.4h121.3c1.4,0,2.4-1.2,2.4-2.4v-30
		c0-1.4-1.2-2.4-2.4-2.4L18.5,17.9L18.5,17.9z"/>
	<g>
		<path class="st1" d="M39.8,34.3v8.8c-1.7,1.1-4.6,1.7-6.8,1.7c-6,0-9.6-4.4-9.6-9.4c0-5.3,3.9-9.4,9.4-9.4c3.3,0,5.2,0.9,6.7,2.3
			L37.8,30c-1.5-1.5-3.1-1.8-5-1.8c-4.1,0-6.8,3.2-6.8,7.1c0,4.1,3,7.1,7,7.1c1.7,0,3.3-0.3,4.5-1v-5h-4v-2.2L39.8,34.3
			C39.8,34.2,39.8,34.3,39.8,34.3z"/>
		<path class="st1" d="M44.2,26.4h6.3c4.6,0,5.7,2.7,5.7,5s-1.7,4.5-4.5,4.8l5,8.2h-3.1l-4.6-7.9h-2.7v7.9H44L44.2,26.4L44.2,26.4z
			 M46.7,34.3h3.1c1.9,0,3.9-0.5,3.9-2.9s-2-3-3.9-3h-3.1V34.3z"/>
		<path class="st1" d="M58.5,35.3c0-5.3,3.9-9.4,9.4-9.4s9.4,4.1,9.4,9.4s-3.9,9.4-9.4,9.4S58.5,40.7,58.5,35.3z M74.6,35.3
			c0-4-2.6-7.1-6.8-7.1s-6.8,3.2-6.8,7.1c0,4,2.6,7.1,6.8,7.1S74.6,39.3,74.6,35.3z"/>
		<path class="st1" d="M79.6,35.3c0-5.3,3.9-9.4,9.4-9.4c5.5,0,9.4,4.1,9.4,9.4s-3.9,9.4-9.4,9.4S79.6,40.7,79.6,35.3z M95.7,35.3
			c0-4-2.6-7.1-6.8-7.1c-4.1,0-6.8,3.2-6.8,7.1c0,4,2.6,7.1,6.8,7.1C93,42.4,95.7,39.3,95.7,35.3z"/>
		<path class="st1" d="M99.3,26.4h2.8l5.2,14.6h0.1l5.5-14.6h2.6l-7,18h-2.3L99.3,26.4z"/>
		<path class="st1" d="M117.7,26.4h11.6v2.2h-9.1v5.3h8.4v2.2h-8.4v5.7h9.6v2.2h-12L117.7,26.4L117.7,26.4z"/>
	</g>
	<g class="st2">
		<path d="M133.2,26c1.2,0,2.2,1,2.2,2.2c0,1.2-1,2.2-2.2,2.2c-1.2,0-2.2-1-2.2-2.2C131.1,27,132,26,133.2,26z M133.2,29.9
			c1.1,0,1.8-0.8,1.8-1.8c0-1.1-0.8-1.8-1.8-1.8c-1,0-1.8,0.8-1.8,1.8C131.3,29.1,132.2,29.9,133.2,29.9z M132.3,26.9h0.9
			c0.5,0,0.9,0.2,0.9,0.7c0,0.3-0.2,0.6-0.6,0.7l0.7,1.1h-0.5l-0.6-1.1h-0.3v1h-0.4L132.3,26.9C132.4,26.9,132.3,26.9,132.3,26.9z
			 M133.2,27.9c0.2,0,0.6-0.1,0.6-0.3c0-0.2-0.2-0.3-0.5-0.3h-0.4V28L133.2,27.9L133.2,27.9z"/>
	</g>
</g>
</svg>
