<?xml version="1.0" encoding="utf-8"?>
<!-- Generator: Adobe Illustrator 24.0.0, SVG Export Plug-In . SVG Version: 6.00 Build 0)  -->
<svg version="1.1" id="Layer_1" xmlns="http://www.w3.org/2000/svg" xmlns:xlink="http://www.w3.org/1999/xlink" x="0px" y="0px"
	 viewBox="0 0 158.4 70.8" style="enable-background:new 0 0 158.4 70.8;" xml:space="preserve">
<style type="text/css">
	.st0{fill:#BCBDBF;}
	.st1{fill:#EA088B;}
	.st2{fill:#FFFFFF;}
</style>
<g>
	<path class="st0" d="M152,44.8H6.3c-2.2,0-2.9-1.6-2.9-2.7V28.7c0-2,1.8-2.7,2.9-2.7H152c1.9,0,2.9,1.4,2.9,2.7v13.4
		C155,43.9,153.5,44.8,152,44.8z M6.3,26.9c-0.7,0-1.9,0.4-1.9,1.8v13.4c0,0.6,0.4,1.8,1.9,1.8H152c0.7,0,1.9-0.4,1.9-1.8V28.7
		c0-0.6-0.4-1.8-1.9-1.8H6.3z"/>
	<path class="st1" d="M78,26.9c0,0-2,0-2,1.8v13.4c0,0,0,1.8,2,1.8h74c0,0,2,0,2-1.8V28.7c0,0,0-1.8-2-1.8H78z"/>
	<g>
		<path class="st1" d="M10,39l3-6.8h3l-1.8,4l1.6-1.4h2.4l1.2-2.6h2.9l-3,6.8h-2.9l1.1-2.4h-3.3L13,39H10z"/>
		<path class="st1" d="M23.3,39l1.4-3.2L23,32.2h3.3l0.8,1.6l2.2-1.6h3.3l-4.9,3.6L26.3,39H23.3z"/>
		<path class="st1" d="M33.3,32.2h7.1c0.3,0,0.6,0.1,0.8,0.2c0.2,0.1,0.4,0.2,0.5,0.4c0.1,0.2,0.2,0.4,0.2,0.6
			c0,0.2,0.1,0.5,0.1,0.7v0c0,0.2,0,0.3-0.1,0.5s-0.2,0.3-0.3,0.5s-0.3,0.3-0.4,0.4c-0.2,0.1-0.3,0.2-0.4,0.2
			c0.1,0.1,0.2,0.2,0.3,0.3c0.1,0.1,0.1,0.3,0.2,0.5c0,0.1,0,0.2-0.1,0.4c-0.1,0.1-0.1,0.2-0.2,0.3l-0.1,0.1
			c-0.2,0.3-0.3,0.6-0.5,0.8c-0.2,0.2-0.4,0.4-0.6,0.5c-0.3,0.1-0.6,0.2-0.9,0.3C38.4,39,37.9,39,37.4,39h-7.1L33.3,32.2z M34,37.3
			h3.2c0.1,0,0.2-0.1,0.2-0.1c0.1,0,0.1-0.1,0.2-0.1c0.1,0,0.1-0.1,0.1-0.1c0.1-0.1,0.1-0.2,0.1-0.2l0-0.1c0,0,0-0.1,0-0.1
			c0-0.1,0-0.1,0-0.2h-3.6L34,37.3z M34.6,35.9l1.5-1.1h2.5c0,0,0,0,0.1-0.1c0,0,0.1-0.1,0.1-0.1c0-0.1,0.1-0.1,0.1-0.1
			c0,0,0.1-0.1,0.1-0.1l0-0.1c0,0,0,0,0-0.1c0,0-0.1-0.1-0.2-0.2c-0.1-0.1-0.1-0.1-0.1-0.1h-3.2L34.6,35.9z"/>
		<path class="st1" d="M40.9,39l3-6.8h6.9c0.4,0,0.6,0.1,0.9,0.2c0.2,0.1,0.4,0.3,0.5,0.5c0.1,0.2,0.2,0.4,0.3,0.6
			c0,0.2,0.1,0.4,0.1,0.6c0,0.4-0.1,0.8-0.4,1.1c-0.3,0.3-0.6,0.5-1,0.7c-0.4,0.2-0.8,0.3-1.3,0.4c-0.5,0.1-0.9,0.1-1.3,0.1l3,2.6
			h-3.3l-3.2-2.4l-0.2,0.1l-1,2.3H40.9z M49.5,34.3v-0.1c0-0.1,0-0.1-0.1-0.2c0,0-0.1-0.1-0.2-0.1h-3.1l-0.9,2l1.4-1.1h2.5
			c0.2,0,0.3-0.1,0.3-0.2C49.5,34.5,49.5,34.4,49.5,34.3z"/>
		<path class="st1" d="M51.6,39L51.6,39c0,0,0.1-0.1,0.2-0.3c0.1-0.2,0.3-0.3,0.5-0.5c0.2-0.2,0.4-0.4,0.6-0.5
			c0.2-0.2,0.4-0.3,0.5-0.4h1.9l1.5-3.4h-2.9v0c0,0,0.1-0.1,0.2-0.3c0.1-0.2,0.3-0.3,0.5-0.5c0.2-0.2,0.4-0.4,0.6-0.5
			c0.2-0.2,0.4-0.3,0.5-0.4h7.7c-0.1,0.1-0.2,0.3-0.4,0.5c-0.2,0.2-0.3,0.4-0.5,0.6c-0.2,0.2-0.4,0.4-0.6,0.5
			c-0.2,0.1-0.3,0.2-0.4,0.2h-1.8l-1.5,3.4h2.9c-0.1,0.1-0.2,0.3-0.4,0.5c-0.2,0.2-0.3,0.4-0.5,0.6c-0.2,0.2-0.4,0.4-0.6,0.5
			C59.5,39,59.4,39,59.3,39H51.6z"/>
		<path class="st1" d="M70.4,37.3c-0.4,0.4-0.9,0.7-1.5,1c-0.5,0.2-1.1,0.4-1.8,0.5C66.6,39,65.8,39,65,39h-3.8l3-6.8h6.7
			c0.6,0,1.1,0.1,1.3,0.4c0.3,0.3,0.4,0.6,0.4,1.1c0,0.3-0.1,0.7-0.2,1.1c-0.2,0.4-0.4,0.8-0.7,1.1C71.3,36.5,70.9,37,70.4,37.3z
			 M64.9,37.3h0.4c0.2,0,0.5,0,0.9-0.1c0.3-0.1,0.7-0.2,1-0.4c0.3-0.1,0.6-0.3,0.9-0.5c0.3-0.2,0.5-0.4,0.6-0.6
			c0.1-0.1,0.1-0.1,0.2-0.2c0.1-0.1,0.1-0.2,0.2-0.3c0.1-0.1,0.1-0.3,0.2-0.4s0.1-0.2,0.1-0.4c0-0.1,0-0.3-0.1-0.4
			c-0.1-0.1-0.2-0.1-0.4-0.1h-2.5L64.9,37.3z"/>
	</g>
	<g>
		<path class="st2" d="M86.7,32.2h7.1c0.3,0,0.6,0.1,0.8,0.2c0.2,0.1,0.4,0.2,0.5,0.4c0.1,0.2,0.2,0.4,0.2,0.6
			c0,0.2,0.1,0.5,0.1,0.7v0c0,0.2,0,0.3-0.1,0.5c-0.1,0.2-0.2,0.3-0.3,0.5s-0.3,0.3-0.4,0.4c-0.2,0.1-0.3,0.2-0.4,0.2
			c0.1,0.1,0.2,0.2,0.3,0.3c0.1,0.1,0.1,0.3,0.2,0.5c0,0.1,0,0.2-0.1,0.4c-0.1,0.1-0.1,0.2-0.2,0.3l-0.1,0.1
			c-0.2,0.3-0.3,0.6-0.5,0.8c-0.2,0.2-0.4,0.4-0.6,0.5c-0.3,0.1-0.6,0.2-0.9,0.3C91.8,39,91.4,39,90.8,39h-7.1L86.7,32.2z
			 M87.4,37.3h3.2c0.1,0,0.2-0.1,0.2-0.1c0.1,0,0.1-0.1,0.2-0.1c0.1,0,0.1-0.1,0.1-0.1c0.1-0.1,0.1-0.2,0.1-0.2l0-0.1
			c0,0,0-0.1,0-0.1c0-0.1,0-0.1,0-0.2h-3.6L87.4,37.3z M88,35.9l1.5-1.1H92c0,0,0,0,0.1-0.1s0.1-0.1,0.1-0.1c0-0.1,0.1-0.1,0.1-0.1
			c0,0,0.1-0.1,0.1-0.1l0-0.1c0,0,0,0,0-0.1c0,0-0.1-0.1-0.2-0.2s-0.1-0.1-0.1-0.1h-3.2L88,35.9z"/>
		<path class="st2" d="M106.3,35.3c-0.1,0.5-0.3,1-0.6,1.4c-0.3,0.4-0.7,0.8-1.1,1.2c-0.5,0.3-1,0.6-1.5,0.8
			c-0.6,0.2-1.2,0.3-1.8,0.3h-1.5c-0.6,0-1.1,0-1.6-0.1c-0.5-0.1-0.9-0.2-1.3-0.4c-0.4-0.2-0.6-0.4-0.8-0.8
			c-0.2-0.3-0.3-0.7-0.3-1.2c0-0.1,0-0.2,0-0.3c0-0.1,0-0.2,0-0.3c0.1-0.5,0.3-0.9,0.6-1.4c0.3-0.4,0.7-0.8,1.1-1.2
			c0.4-0.3,0.9-0.6,1.5-0.8c0.5-0.2,1.1-0.3,1.6-0.3h2c1.2,0,2.2,0.2,2.8,0.5c0.6,0.4,1,0.9,1,1.8c0,0.1,0,0.3,0,0.4
			C106.3,35,106.3,35.2,106.3,35.3z M98.7,35.7C98.6,35.7,98.6,35.8,98.7,35.7l0,0.2c0,0.2,0,0.3,0.1,0.5c0.1,0.2,0.2,0.3,0.3,0.5
			c0.1,0.1,0.3,0.2,0.4,0.3c0.2,0.1,0.3,0.1,0.5,0.1h1c0.1,0,0.2,0,0.4-0.1c0.2-0.1,0.4-0.2,0.6-0.3c0.2-0.1,0.4-0.3,0.6-0.4
			c0.2-0.2,0.3-0.3,0.4-0.4c0.1-0.1,0.2-0.2,0.2-0.3l0.1-0.1c0,0,0-0.1,0-0.1s0,0,0,0c0-0.1,0-0.3,0-0.4c0-0.1,0-0.3-0.1-0.4
			c0-0.1-0.1-0.3-0.2-0.4c-0.1-0.1-0.2-0.2-0.4-0.3c-0.2-0.1-0.4-0.1-0.6-0.1h-1.3c-0.2,0-0.3,0-0.5,0.1c-0.2,0.1-0.4,0.2-0.6,0.3
			c-0.2,0.1-0.4,0.3-0.5,0.4c-0.2,0.2-0.3,0.3-0.4,0.4c-0.1,0.1-0.1,0.2-0.1,0.3C98.7,35.6,98.7,35.6,98.7,35.7z"/>
		<path class="st2" d="M115.9,39h-2.7l-0.3-1.5c0,0.1-0.1,0.2-0.2,0.3c-0.1,0.1-0.3,0.3-0.4,0.5c-0.2,0.2-0.3,0.3-0.5,0.5
			c-0.2,0.1-0.3,0.2-0.3,0.2h-6.5c0-0.1,0-0.1,0-0.1v0l5.6-5.9c0-0.1,0.1-0.1,0.2-0.2c0.1-0.1,0.2-0.2,0.3-0.3
			c0.1-0.1,0.2-0.2,0.3-0.2c0.1-0.1,0.2-0.1,0.3-0.1h2.6c0.1,0,0.2,0,0.3,0.1c0.1,0.1,0.2,0.2,0.2,0.3c0.1,0.1,0.1,0.3,0.2,0.4
			c0,0.2,0.1,0.3,0.1,0.4L115.9,39z M109.6,37.2v0.1h3.1l-0.5-3L109.6,37.2z"/>
		<path class="st2" d="M116.6,39l3-6.8h6.9c0.4,0,0.6,0.1,0.9,0.2c0.2,0.1,0.4,0.3,0.5,0.5c0.1,0.2,0.2,0.4,0.3,0.6
			c0,0.2,0.1,0.4,0.1,0.6c0,0.4-0.1,0.8-0.4,1.1c-0.3,0.3-0.6,0.5-1,0.7c-0.4,0.2-0.8,0.3-1.3,0.4s-0.9,0.1-1.3,0.1l3,2.6h-3.3
			l-3.2-2.4l-0.2,0.1l-1,2.3H116.6z M125.2,34.3v-0.1c0-0.1,0-0.1-0.1-0.2c0,0-0.1-0.1-0.2-0.1h-3.1l-0.9,2l1.4-1.1h2.5
			c0.2,0,0.3-0.1,0.3-0.2C125.1,34.5,125.2,34.4,125.2,34.3z"/>
		<path class="st2" d="M136.5,37.3c-0.4,0.4-0.9,0.7-1.5,1c-0.5,0.2-1.1,0.4-1.8,0.5c-0.6,0.1-1.4,0.2-2.2,0.2h-3.8l3-6.8h6.7
			c0.6,0,1.1,0.1,1.3,0.4c0.3,0.3,0.4,0.6,0.4,1.1c0,0.3-0.1,0.7-0.2,1.1c-0.2,0.4-0.4,0.8-0.7,1.1C137.4,36.5,137,37,136.5,37.3z
			 M131.1,37.3h0.4c0.2,0,0.5,0,0.9-0.1c0.3-0.1,0.7-0.2,1-0.4c0.3-0.1,0.6-0.3,0.9-0.5c0.3-0.2,0.5-0.4,0.6-0.6
			c0.1-0.1,0.1-0.1,0.2-0.2c0.1-0.1,0.1-0.2,0.2-0.3c0.1-0.1,0.1-0.3,0.2-0.4c0.1-0.1,0.1-0.2,0.1-0.4c0-0.1,0-0.3-0.1-0.4
			c-0.1-0.1-0.2-0.1-0.4-0.1h-2.5L131.1,37.3z"/>
		<path class="st2" d="M144.8,36.8c0-0.1,0-0.1,0-0.2s-0.1-0.1-0.2-0.1h-3.1c-0.3,0-0.6-0.1-0.8-0.2c-0.2-0.1-0.5-0.3-0.6-0.5
			c-0.2-0.2-0.3-0.4-0.4-0.6c-0.1-0.2-0.1-0.5-0.1-0.7c0-0.2,0.1-0.4,0.2-0.7c0.1-0.3,0.3-0.5,0.6-0.7c0.2-0.2,0.5-0.4,0.8-0.6
			c0.3-0.2,0.6-0.2,0.9-0.2h7.9c-0.2,0.3-0.5,0.6-0.8,0.9c-0.3,0.3-0.6,0.6-1,0.9h-5.1c-0.1,0-0.2,0.1-0.3,0.2
			c-0.1,0.1-0.1,0.2-0.1,0.3v0.1c0,0,0,0,0.1,0.1c0,0,0.1,0.1,0.1,0.1c0,0,0.1,0.1,0.2,0.1c0.1,0,0.1,0,0.1,0h2.9
			c0.3,0,0.6,0.1,0.8,0.2c0.2,0.1,0.4,0.3,0.6,0.5s0.3,0.4,0.3,0.7c0.1,0.2,0.1,0.4,0.1,0.6v0.1c0,0.2-0.1,0.5-0.2,0.7
			c-0.1,0.3-0.3,0.5-0.5,0.7c-0.2,0.2-0.4,0.4-0.7,0.5c-0.3,0.1-0.5,0.2-0.8,0.2h-7.9c0.1-0.1,0.2-0.2,0.3-0.4
			c0.2-0.2,0.3-0.4,0.5-0.6c0.2-0.2,0.3-0.4,0.5-0.5c0.2-0.2,0.2-0.2,0.3-0.2h5.3c0.2,0,0.2,0,0.3-0.1c0-0.1,0-0.2,0-0.2V36.8
			L144.8,36.8z"/>
	</g>
</g>
</svg>
