<?xml version="1.0" encoding="utf-8"?>
<!-- Generator: Adobe Illustrator 24.0.0, SVG Export Plug-In . SVG Version: 6.00 Build 0)  -->
<svg version="1.1" id="Layer_1" xmlns="http://www.w3.org/2000/svg" xmlns:xlink="http://www.w3.org/1999/xlink" x="0px" y="0px"
	 viewBox="0 0 158.4 70.8" style="enable-background:new 0 0 158.4 70.8;" xml:space="preserve">
<style type="text/css">
	.st0{fill:none;stroke:#000000;}
	.st1{fill:#4B4B4B;}
	.st2{fill:#E9721E;}
	.st3{fill:#C1A186;}
	.st4{fill:#47949C;}
	.st5{fill:#1F191D;}
	.st6{fill:#E0361A;}
</style>
<g>
	<path class="st0" d="M38.9,16.2c-1.3,0-2.4,1.1-2.4,2.4v23.2c0,1.3,1.1,2.4,2.4,2.4h80.7c1.3,0,2.4-1.1,2.4-2.4V18.7
		c0-1.3-1.1-2.4-2.4-2.4H38.9L38.9,16.2z"/>
	<path class="st1" d="M49.5,22.2l-3.4,8.6l-3.6-8.6c-0.2-0.4-0.4-0.6-0.8-0.6c-0.5,0-0.7,0.3-0.7,0.8v12.1c0,0.1,0,0.2,0.1,0.3
		c0.1,0.1,0.2,0.1,0.3,0.1h0.2c0.1,0,0.2,0,0.3-0.1c0.1-0.1,0.1-0.2,0.1-0.3V23.2l3.5,8.2c0.2,0.4,0.4,0.5,0.8,0.5
		c0.3,0,0.5-0.2,0.7-0.5l3.3-8.1v11.3c0,0.1,0,0.2,0.1,0.3c0.1,0.1,0.2,0.1,0.3,0.1h0.2c0.1,0,0.2,0,0.3-0.1
		c0.1-0.1,0.1-0.2,0.1-0.3V22.4c0-0.3-0.1-0.5-0.2-0.6c-0.2-0.1-0.3-0.2-0.5-0.2C50,21.6,49.7,21.8,49.5,22.2L49.5,22.2L49.5,22.2z
		 M52.9,34.4c0,0,0,0.1,0,0.1c0,0.3,0.1,0.4,0.4,0.4h0.2c0.2,0,0.3-0.1,0.4-0.2L58,22.9l4.1,11.7c0.1,0.2,0.2,0.2,0.4,0.2h0.2
		c0.3,0,0.4-0.1,0.4-0.4c0,0,0-0.1,0-0.1l-4.4-12.2c-0.1-0.4-0.4-0.5-0.7-0.5s-0.6,0.2-0.7,0.5L52.9,34.4L52.9,34.4z M56,29.5v0.2
		c0,0.3,0.1,0.4,0.4,0.4h3.3c0.1,0,0.2,0,0.3-0.1c0.1-0.1,0.1-0.2,0.1-0.3v-0.2c0-0.1,0-0.2-0.1-0.3c-0.1-0.1-0.2-0.1-0.3-0.1h-3.3
		C56.1,29.1,56,29.2,56,29.5L56,29.5L56,29.5z M66.1,26.7c0.4,0.5,1.1,1,2,1.4c1.2,0.5,2.1,0.8,2.6,1.1c0.4,0.2,0.8,0.5,1.2,0.8
		c0.5,0.4,0.7,0.9,0.7,1.6c0,0.7-0.3,1.3-0.8,1.7c-0.6,0.5-1.3,0.7-2.2,0.7s-1.7-0.2-2.4-0.6c-0.4-0.2-0.7-0.5-0.9-0.9
		c-0.3-0.4-0.4-0.9-0.4-1.4c0-0.2-0.2-0.4-0.4-0.4h-0.2c-0.3,0-0.4,0.1-0.4,0.4c0,0.7,0.2,1.3,0.5,1.8s0.7,0.9,1.1,1.2
		c0.9,0.5,1.8,0.8,2.8,0.8c1.3,0,2.4-0.3,3.1-1c0.7-0.6,1.1-1.4,1.1-2.3s-0.2-1.6-0.6-2.1c-0.5-0.6-1.6-1.3-3.2-1.9
		c-1.3-0.5-2.3-1-2.7-1.5c-0.4-0.4-0.5-0.9-0.5-1.5s0.3-1.1,0.8-1.5s1.2-0.6,2.1-0.6c0.8,0,1.6,0.2,2.2,0.7c0.6,0.4,0.9,1.1,1,2.1
		c0,0.1,0.1,0.2,0.1,0.3c0.1,0.1,0.2,0.1,0.2,0.1H73c0.1,0,0.2,0,0.3-0.1c0.1-0.1,0.1-0.2,0.1-0.3c0-1.2-0.5-2.1-1.3-2.7
		c-0.8-0.6-1.8-0.9-2.9-0.9c-1.2,0-2.1,0.3-2.7,0.9c-0.7,0.6-1,1.3-1,2.1C65.5,25.5,65.7,26.2,66.1,26.7L66.1,26.7z M83.2,21.8
		l-2.7,4.8l-3.7,6.8V22.1c0-0.1,0-0.2-0.1-0.3c-0.1-0.1-0.2-0.1-0.3-0.1h-0.2c-0.1,0-0.2,0-0.3,0.1c-0.1,0.1-0.1,0.2-0.1,0.3v12.2
		c0,0.5,0.2,0.8,0.7,0.8c0.3,0,0.5-0.2,0.8-0.6l2.9-5.3l3.3,5.7c0,0.1,0.1,0.1,0.3,0.1h0.2c0.3,0,0.4-0.1,0.4-0.3
		c0-0.1,0-0.1-0.1-0.2l-3.6-6.2l3.3-5.9c0.1-0.2,0.1-0.3,0-0.4c-0.1-0.1-0.2-0.1-0.3-0.1h-0.2C83.3,21.7,83.2,21.7,83.2,21.8
		L83.2,21.8L83.2,21.8z M85.2,34.4c0,0,0,0.1,0,0.1c0,0.3,0.1,0.4,0.4,0.4h0.2c0.2,0,0.3-0.1,0.4-0.2l4.1-11.7l4.1,11.7
		c0.1,0.2,0.2,0.2,0.4,0.2H95c0.3,0,0.4-0.1,0.4-0.4c0,0,0-0.1,0-0.1L91,22.2c-0.1-0.4-0.4-0.5-0.7-0.5c-0.4,0-0.6,0.2-0.7,0.5
		L85.2,34.4L85.2,34.4z M88.2,29.5v0.2c0,0.3,0.1,0.4,0.4,0.4h3.3c0.1,0,0.2,0,0.3-0.1c0.1-0.1,0.1-0.2,0.1-0.3v-0.2
		c0-0.1,0-0.2-0.1-0.3c-0.1-0.1-0.2-0.1-0.3-0.1h-3.3C88.4,29.1,88.2,29.2,88.2,29.5L88.2,29.5L88.2,29.5z M97.4,21.9
		c-0.1,0.1-0.2,0.4-0.2,0.7v12c0,0.1,0,0.2,0.1,0.3c0.1,0.1,0.2,0.1,0.3,0.1h0.2c0.1,0,0.2,0,0.3-0.1c0.1-0.1,0.1-0.2,0.1-0.3V22.6
		h2.4c2.4,0,3.7,0.9,3.7,2.7c0,0.6-0.2,1.1-0.5,1.7c-0.2,0.3-0.5,0.5-0.8,0.7c-0.4,0.2-0.8,0.3-1.4,0.3h-0.8c-0.4,0-0.7,0.2-0.7,0.6
		c0,0.1,0.1,0.3,0.2,0.5l4.4,5.7c0.1,0.1,0.2,0.2,0.4,0.2h0.4c0.2,0,0.3-0.1,0.3-0.3c0,0-0.1-0.2-0.2-0.4l-4.1-5.4h0.2
		c1.3,0,2.2-0.4,2.8-1.1s0.9-1.6,0.9-2.5c0-2.4-1.5-3.6-4.6-3.6H98C97.7,21.7,97.5,21.7,97.4,21.9L97.4,21.9z M105.9,34.4
		c0,0,0,0.1,0,0.1c0,0.3,0.1,0.4,0.4,0.4h0.2c0.2,0,0.3-0.1,0.4-0.2l4.1-11.7l4.1,11.7c0.1,0.2,0.2,0.2,0.4,0.2h0.2
		c0.3,0,0.4-0.1,0.4-0.4c0,0,0-0.1,0-0.1l-4.3-12.2c-0.1-0.4-0.4-0.5-0.7-0.5c-0.4,0-0.6,0.2-0.7,0.5L105.9,34.4L105.9,34.4z
		 M109,29.5v0.2c0,0.3,0.1,0.4,0.4,0.4h3.3c0.1,0,0.2,0,0.3-0.1c0.1-0.1,0.1-0.2,0.1-0.3v-0.2c0-0.1,0-0.2-0.1-0.3
		c-0.1-0.1-0.2-0.1-0.3-0.1h-3.3C109.1,29.1,109,29.2,109,29.5L109,29.5L109,29.5z"/>
	<polygon class="st2" points="71,38.1 71,39.1 86,39.1 86,38.1 	"/>
	<polygon class="st3" points="86,38.1 86,39.1 101.1,39.1 101.1,38.1 	"/>
	<polygon class="st4" points="101.1,38.1 101.1,39.1 116.1,39.1 116.1,38.1 	"/>
	<polygon class="st5" points="40.9,38.1 40.9,39.1 56,39.1 56,38.1 	"/>
	<polygon class="st6" points="56,38.1 56,39.1 71,39.1 71,38.1 	"/>
	<path class="st1" d="M116,22.8v1.4c0,0,0,0,0,0c0,0,0,0,0,0h0c0,0,0,0,0,0c0,0,0,0,0,0v-1.4C116.1,22.7,116.1,22.7,116,22.8
		L116,22.8C116,22.7,116,22.7,116,22.8L116,22.8L116,22.8z M115.5,22.5C115.5,22.6,115.4,22.6,115.5,22.5L115.5,22.5
		c0,0.1,0,0.1,0,0.1h1.1c0,0,0,0,0,0v0c0,0,0,0,0,0c0,0,0,0,0,0L115.5,22.5C115.5,22.5,115.5,22.5,115.5,22.5L115.5,22.5z
		 M117.8,22.6l-0.4,1.1l-0.5-1.1c0,0-0.1-0.1-0.1-0.1c-0.1,0-0.1,0-0.1,0.1v1.5c0,0,0,0,0,0c0,0,0,0,0,0h0c0,0,0,0,0,0c0,0,0,0,0,0
		v-1.4l0.4,1c0,0,0.1,0.1,0.1,0.1c0,0,0.1,0,0.1-0.1l0.4-1v1.4c0,0,0,0,0,0c0,0,0,0,0,0h0c0,0,0,0,0,0c0,0,0,0,0,0v-1.5
		c0,0,0-0.1,0-0.1C118,22.5,117.9,22.5,117.8,22.6C117.9,22.5,117.9,22.5,117.8,22.6L117.8,22.6L117.8,22.6z"/>
	<path d="M118.7,23.4c0-1.1-0.9-2-2-2s-2,0.9-2,2s0.9,2,2,2S118.7,24.5,118.7,23.4L118.7,23.4z M118.6,23.4c0,1-0.8,1.8-1.8,1.8
		c-1,0-1.8-0.8-1.8-1.8s0.8-1.8,1.8-1.8C117.8,21.5,118.6,22.3,118.6,23.4L118.6,23.4z"/>
	<g>
		<path d="M39.7,50.1c-0.4-0.4-0.8-0.5-1.3-0.5c-1,0-1.7,1.1-1.7,2.6c0.3-0.5,0.8-0.9,1.6-0.9c0.9,0,1.8,0.6,1.8,1.6
			c0,1-0.8,1.7-1.8,1.7c-0.5,0-1-0.2-1.3-0.5c-0.4-0.4-0.6-0.9-0.6-2c0-1.5,0.8-2.8,2.1-2.8c0.6,0,1,0.2,1.5,0.6L39.7,50.1z
			 M38.3,51.6c-0.8,0-1.4,0.6-1.4,1.3c0,0.7,0.6,1.3,1.4,1.3c0.8,0,1.4-0.6,1.4-1.3C39.7,52.1,39.1,51.6,38.3,51.6z"/>
		<path d="M45,54.4V52h-3.3v2.4h-0.4v-5.1h0.4v2.4H45v-2.4h0.4v5.1H45z"/>
		<path d="M53.3,54.4L52.7,53h-3L49,54.4h-0.4l2.4-5.1h0.4l2.4,5.1H53.3z M51.2,49.7l-1.3,2.9h2.7L51.2,49.7z"/>
		<path d="M56.8,54.5c-1.5,0-2.5-1.2-2.5-2.6v0c0-1.4,1.1-2.6,2.5-2.6c0.9,0,1.5,0.3,2,0.8l-0.3,0.3c-0.4-0.4-1-0.8-1.7-0.8
			c-1.2,0-2.1,1-2.1,2.3v0c0,1.3,0.9,2.3,2.2,2.3c0.7,0,1.2-0.3,1.8-0.8l0.3,0.2C58.3,54.2,57.7,54.5,56.8,54.5z"/>
		<path d="M63.5,54.4l-1.6-2.1h-1.7v2.1h-0.4v-5.1H62c1.1,0,1.8,0.6,1.8,1.4v0c0,0.9-0.6,1.3-1.5,1.5l1.7,2.2H63.5z M63.5,50.8
			c0-0.7-0.5-1.1-1.5-1.1h-1.7V52H62C62.8,52,63.5,51.5,63.5,50.8L63.5,50.8z"/>
		<path d="M67,52.4v2h-0.4v-2l-2.2-3.1h0.5l1.9,2.7l1.9-2.7h0.4L67,52.4z"/>
		<path d="M70.2,54.4v-5.1h0.4v4.7h3v0.4L70.2,54.4L70.2,54.4z"/>
		<path d="M74.7,54.4v-5.1h0.4v5.1H74.7z"/>
		<path d="M79,54.5c-1.5,0-2.5-1.2-2.5-2.6v0c0-1.4,1.1-2.6,2.5-2.6c0.9,0,1.5,0.3,2,0.8l-0.3,0.3c-0.4-0.4-1-0.8-1.7-0.8
			c-1.2,0-2.1,1-2.1,2.3v0c0,1.3,0.9,2.3,2.2,2.3c0.7,0,1.2-0.3,1.8-0.8l0.3,0.2C80.5,54.2,79.9,54.5,79,54.5z"/>
		<path d="M84.2,54.4v-5.1h0.4v4.7h3v0.4L84.2,54.4L84.2,54.4z"/>
		<path d="M93,54.4L92.4,53h-3l-0.6,1.4h-0.4l2.4-5.1H91l2.4,5.1H93z M90.9,49.7l-1.3,2.9h2.7L90.9,49.7z"/>
		<path d="M98.9,54.4V50l-2,2.9h0l-2-2.9v4.4h-0.4v-5.1h0.4l2,3l2-3h0.4v5.1H98.9z"/>
		<path d="M100.9,54.4v-5.1h0.4v5.1H100.9z"/>
		<path d="M106.8,54.4l-3.6-4.5v4.5h-0.4v-5.1h0.4l3.5,4.4v-4.4h0.4v5.1H106.8z"/>
		<path d="M112.8,54.4l-0.6-1.4h-3l-0.6,1.4h-0.4l2.4-5.1h0.4l2.4,5.1H112.8z M110.7,49.7l-1.3,2.9h2.7L110.7,49.7z"/>
		<path d="M115.4,49.7v4.7h-0.4v-4.7h-1.8v-0.4h3.9v0.4C117.2,49.7,115.4,49.7,115.4,49.7z"/>
		<path d="M118.4,54.4v-5.1h3.6v0.4h-3.2v2h2.9V52h-2.9v2h3.3v0.4L118.4,54.4L118.4,54.4z"/>
	</g>
</g>
</svg>
