<?xml version="1.0" encoding="utf-8"?>
<!-- Generator: Adobe Illustrator 24.0.0, SVG Export Plug-In . SVG Version: 6.00 Build 0)  -->
<svg version="1.1" id="Layer_1" xmlns="http://www.w3.org/2000/svg" xmlns:xlink="http://www.w3.org/1999/xlink" x="0px" y="0px"
	 viewBox="0 0 158.4 70.8" style="enable-background:new 0 0 158.4 70.8;" xml:space="preserve">
<style type="text/css">
	.st0{font-family:'Gotham-Light';}
	.st1{font-size:8.8502px;}
</style>
<g>
	<g>
		<path d="M155.7,24.3c0-3.1-2.5-5.5-5.5-5.5s-5.5,2.5-5.5,5.5s2.5,5.5,5.5,5.5S155.7,27.4,155.7,24.3L155.7,24.3z M155.4,24.3
			c0,2.9-2.3,5.2-5.2,5.2s-5.2-2.3-5.2-5.2s2.3-5.2,5.2-5.2C153.1,19.1,155.4,21.4,155.4,24.3L155.4,24.3z"/>
		<path d="M146.1,22.8h1.3v3.5h0.6v-3.5h1.3v-0.4h-3.3L146.1,22.8L146.1,22.8z M153.7,22.3l-1.5,3l-1.5-3H150v3.9h0.4v-2.9l1.5,2.9
			h0.2l1.5-3v2.9h0.6v-3.9H153.7L153.7,22.3z"/>
		<path d="M2.6,37.7h15.7v-1.2H5.6l13.3-17.5v-0.2H3.6V20h12.3L2.6,37.5V37.7L2.6,37.7z M21.4,37.7h15.5v-1.2H23.6v-8.4h11.7V27
			H23.6v-7h13.3v-1.2H21.4V37.7L21.4,37.7z M53.6,33.9c-0.4-1.2-0.9-2.1-1.4-2.8c-0.5-0.7-1.1-1.2-1.8-1.5c1.5-0.3,2.7-0.9,3.5-1.8
			c0.8-0.9,1.2-2,1.2-3.4c0-1.8-0.7-3.2-2.1-4.1c-1.4-0.9-3.3-1.4-5.8-1.4h-7.6v18.9h2.2v-7.9h5.3c0.4,0,0.7,0,0.9,0
			c0.8,0.3,1.5,0.7,2,1.5c0.5,0.7,1.1,1.8,1.6,3.2c0.3,0.8,0.6,1.5,0.8,2s0.5,0.9,0.8,1.3h2.4v-0.2c-0.4-0.3-0.7-0.7-1.1-1.3
			C54.4,35.6,54,34.8,53.6,33.9L53.6,33.9L53.6,33.9z M41.9,28.7V20h5.4c1.8,0,3.2,0.4,4.2,1.1c1,0.7,1.5,1.8,1.5,3.3
			c0,1.4-0.5,2.5-1.5,3.3c-1,0.7-2.4,1.1-4.2,1.1L41.9,28.7L41.9,28.7z"/>
		<path d="M2.6,37.7h15.7v-1.2H5.6l13.3-17.5v-0.2H3.6V20h12.3L2.6,37.5V37.7L2.6,37.7z M21.4,37.7h15.5v-1.2H23.6v-8.4h11.7V27
			H23.6v-7h13.3v-1.2H21.4V37.7L21.4,37.7z M53.6,33.9c-0.4-1.2-0.9-2.1-1.4-2.8c-0.5-0.7-1.1-1.2-1.8-1.5c1.5-0.3,2.7-0.9,3.5-1.8
			c0.8-0.9,1.2-2,1.2-3.4c0-1.8-0.7-3.2-2.1-4.1c-1.4-0.9-3.3-1.4-5.8-1.4h-7.6v18.9h2.2v-7.9h5.3c0.4,0,0.7,0,0.9,0
			c0.8,0.3,1.5,0.7,2,1.5c0.5,0.7,1.1,1.8,1.6,3.2c0.3,0.8,0.6,1.5,0.8,2s0.5,0.9,0.8,1.3h2.4v-0.2c-0.4-0.3-0.7-0.7-1.1-1.3
			C54.4,35.6,54,34.8,53.6,33.9L53.6,33.9L53.6,33.9z M41.9,28.7V20h5.4c1.8,0,3.2,0.4,4.2,1.1c1,0.7,1.5,1.8,1.5,3.3
			c0,1.4-0.5,2.5-1.5,3.3c-1,0.7-2.4,1.1-4.2,1.1L41.9,28.7L41.9,28.7z M76.2,18.9L70.1,33l-7.3-14.2h-4.7v18.9h2.5V24l7.1,13.7h2.8
			l5.7-13.3v13.3h4.6V18.9H76.2L76.2,18.9z M100.6,37.7h4.7L96,18.6H93l-9.8,19.2h3.2l2.3-4.8h9.6L100.6,37.7L100.6,37.7z
			 M89.5,31.3l4.1-8.4l3.9,8.4H89.5L89.5,31.3z M110.9,37.7h4.6V20.5h7.8v-1.7h-20.2v1.7h7.8V37.7L110.9,37.7z M131.5,37.7h4.6V20.5
			h7.8v-1.7h-20.2v1.7h7.8V37.7L131.5,37.7z"/>
		<path d="M76.2,18.9L70.1,33l-7.3-14.2h-4.7v18.9h2.5V24l7.1,13.7h2.8l5.7-13.3v13.3h4.6V18.9H76.2L76.2,18.9z M100.6,37.7h4.7
			L96,18.6H93l-9.8,19.2h3.2l2.3-4.8h9.6L100.6,37.7L100.6,37.7z M89.5,31.3l4.1-8.4l3.9,8.4H89.5L89.5,31.3z M110.9,37.7h4.6V20.5
			h7.8v-1.7h-20.2v1.7h7.8V37.7L110.9,37.7z M131.5,37.7h4.6V20.5h7.8v-1.7h-20.2v1.7h7.8V37.7L131.5,37.7z"/>
	</g>
	<text transform="matrix(1 0 0 1 11.3403 50.6844)" class="st0 st1">HAND PICKED PVC LAMINATE</text>
</g>
</svg>
