<?xml version="1.0" encoding="utf-8"?>
<!-- Generator: Adobe Illustrator 24.2.1, SVG Export Plug-In . SVG Version: 6.00 Build 0)  -->
<svg version="1.1" id="Layer_1" xmlns="http://www.w3.org/2000/svg" xmlns:xlink="http://www.w3.org/1999/xlink" x="0px" y="0px"
	 viewBox="0 0 216 216" style="enable-background:new 0 0 216 216;" xml:space="preserve">
<style type="text/css">
	.st0{fill:#FFFFFF;}
	.st1{fill:#F1A01F;}
	.st2{fill:#A71F23;}
	.st3{fill:#478C72;}
	.st4{fill:none;stroke:#FFFFFF;stroke-width:0.75;stroke-miterlimit:10;}
</style>
<g>
	<path class="st0" d="M44.8,137.9H53c2,0,3.4,0.5,4.3,1.4c0.6,0.6,1,1.5,1,2.5v0c0,1.8-1,2.9-2.4,3.5c1.9,0.6,3.1,1.7,3.1,3.8v0
		c0,2.7-2.2,4.3-6,4.3h-8.2V137.9z M51.9,144.2c1.3,0,2.1-0.5,2.1-1.4v0c0-0.9-0.7-1.3-2-1.3h-2.8v2.8H51.9z M52.5,150.1
		c1.3,0,2.1-0.5,2.1-1.4v0c0-0.9-0.7-1.4-2.1-1.4h-3.3v2.9H52.5z"/>
	<polygon class="st0" points="61,137.9 65.4,137.9 65.4,143.8 71,143.8 71,137.9 75.4,137.9 75.4,153.6 71,153.6 71,147.6 
		65.4,147.6 65.4,153.6 61,153.6 	"/>
	<path class="st0" d="M83.7,137.8h4.2l6.7,15.8H90l-1.1-2.8h-6.1l-1.1,2.8H77L83.7,137.8z M87.5,147.4l-1.8-4.5l-1.8,4.5H87.5z"/>
	<polygon class="st0" points="96.2,137.9 100.3,137.9 106.8,146.2 106.8,137.9 111.1,137.9 111.1,153.6 107.3,153.6 100.5,145 
		100.5,153.6 96.2,153.6 	"/>
	<path class="st0" d="M113.9,137.9h6.1c5.7,0,8.9,3.2,8.9,7.7v0c0,4.5-3.3,7.9-9,7.9h-6V137.9z M120.1,149.7c2.6,0,4.4-1.4,4.4-4v0
		c0-2.5-1.7-4-4.4-4h-1.8v8H120.1z"/>
	<path class="st0" d="M135.6,137.8h4.2l6.7,15.8h-4.7l-1.2-2.8h-6.1l-1.1,2.8h-4.6L135.6,137.8z M139.4,147.4l-1.8-4.5l-1.8,4.5
		H139.4z"/>
	<path class="st0" d="M148.1,137.9h7.5c2.4,0,4.1,0.6,5.2,1.7c0.9,0.9,1.4,2.1,1.4,3.6v0c0,2.4-1.3,4-3.3,4.8l3.8,5.5h-5.1l-3.2-4.7
		h-1.9v4.7h-4.4V137.9z M155.4,145.4c1.5,0,2.4-0.7,2.4-1.9v-0.1c0-1.2-0.9-1.9-2.4-1.9h-2.9v3.8H155.4z"/>
	<rect x="164.4" y="137.9" class="st0" width="4.4" height="15.7"/>
	<path class="st0" d="M65.1,175L65.1,175c0-4.6,3.6-8.2,8.5-8.2c2.8,0,4.7,0.9,6.4,2.3l-2.6,3.1c-1.1-0.9-2.3-1.5-3.8-1.5
		c-2.3,0-4,1.9-4,4.3v0c0,2.5,1.8,4.3,4.3,4.3c1.1,0,1.9-0.2,2.5-0.6v-1.9h-3.1v-3.2h7.3v7.1c-1.7,1.4-4,2.4-6.9,2.4
		C68.8,183.2,65.1,179.8,65.1,175"/>
	<path class="st0" d="M83,167.2h7.5c2.4,0,4.1,0.6,5.2,1.7c0.9,0.9,1.4,2.1,1.4,3.6v0c0,2.4-1.3,4-3.3,4.8l3.8,5.5h-5.1l-3.2-4.7
		h-1.9v4.7H83V167.2z M90.3,174.7c1.5,0,2.4-0.7,2.4-1.9v-0.1c0-1.2-0.9-1.9-2.4-1.9h-2.9v3.8H90.3z"/>
	<path class="st0" d="M98.7,175L98.7,175c0-4.5,3.7-8.2,8.5-8.2s8.5,3.6,8.5,8.1v0c0,4.5-3.7,8.1-8.5,8.1S98.7,179.5,98.7,175
		 M111.3,175L111.3,175c0-2.3-1.6-4.3-4.1-4.3c-2.4,0-4,1.9-4,4.2v0c0,2.3,1.6,4.2,4,4.2C109.7,179.2,111.3,177.3,111.3,175"/>
	<path class="st0" d="M117.9,176v-8.8h4.5v8.7c0,2.3,1.2,3.3,2.9,3.3s2.9-1,2.9-3.2v-8.8h4.5v8.7c0,5.1-2.9,7.3-7.4,7.3
		C120.7,183.1,117.9,180.9,117.9,176"/>
	<path class="st0" d="M135.2,167.2h6.8c4,0,6.6,2,6.6,5.5v0c0,3.7-2.9,5.6-6.8,5.6h-2.2v4.5h-4.4V167.2z M141.7,175
		c1.6,0,2.5-0.8,2.5-2v0c0-1.3-1-2.1-2.5-2.1h-2.1v4.1H141.7z"/>
</g>
<path class="st1" d="M142.5,76.9c0,5.3-4.4,9.7-9.8,9.7c-5.4,0-9.8-4.3-9.8-9.7c0-5.3,4.4-9.7,9.8-9.7
	C138.1,67.2,142.5,71.5,142.5,76.9"/>
<path class="st1" d="M135.7,41.6c0,0,34.6,28.2,6.5,66.2c0,0-6.9,7.6-15.5,11.6c0,0-5.2-0.5-2.2-4.7c0,0,15.5-11,15.2-28.4
	c0,0,12.2-10.2-1.9-20.2c0,0-9.1-18.5-29.6-17.2c0,0-6.1-1.7-1.3-5.3c0,0,9.2-2.6,22.5,2.7C129.3,46.4,134.1,47.7,135.7,41.6"/>
<path class="st2" d="M60.6,71.2c0.1,0,0.4-1.7,0.4-1.8c0.4-1.6,0.9-3.3,1.4-4.8c1.8-5.1,4.3-10.1,7.5-14.4
	c4.3-5.8,9.8-10.5,16.3-13.6c3.9-1.9,8.1-3.1,12.4-3.8c2.5-0.4,4.9-0.6,7.4-0.7c5.7-0.1,11.5,0.8,16.8,2.9c1.7,0.6,3.3,1.3,4.9,2.1
	c1.2,0.6,4,1.6,4.8,2.7c0,0,2.2,4.7-3,4.3c0,0-17.3-7.7-32.2,1.3c0,0-15-5.3-16.6,11.7c0,0-11.5,17.1-0.1,33.9c0,0,1.6,6.1-4,3.7
	c0,0-6.8-6.6-8.9-20.5C68,74.2,66.7,69.5,60.6,71.2"/>
<path class="st2" d="M87.9,64.5c-4.7-2.7-6.2-8.6-3.5-13.3c2.7-4.6,8.7-6.2,13.4-3.5c4.7,2.7,6.2,8.6,3.5,13.3
	C98.6,65.7,92.6,67.2,87.9,64.5"/>
<path class="st3" d="M89.6,109.2c-4.7-2.7-6.2-8.6-3.5-13.3c2.7-4.6,8.7-6.2,13.4-3.5c4.7,2.7,6.2,8.6,3.5,13.3
	C100.3,110.4,94.3,111.9,89.6,109.2"/>
<path class="st3" d="M123.8,121.2c0,0-42,15.3-61-27.9c0,0-3.1-9.7-2.3-19.1c0,0,3.1-4.2,5.3,0.5c0,0,1.7,18.8,17,27.3
	c0,0,2.7,15.6,18.5,8.6c0,0,20.7,1.5,30-16.7c0,0,4.6-4.4,5.3,1.6c0,0-2.4,9.2-13.7,17.8C122.8,113.4,119.3,116.8,123.8,121.2"/>
<path class="st0" d="M156.7,38.9c-0.3-0.3-0.8-0.4-1.4-0.4H153v3.1h2.3c0.3,0,0.5,0,0.8-0.1c0.2-0.1,0.4-0.2,0.6-0.3
	c0.2-0.1,0.3-0.3,0.4-0.5c0.1-0.2,0.1-0.4,0.1-0.7C157.2,39.5,157,39.1,156.7,38.9 M157.3,45.3l-2.2-3H153v3h-0.8v-7.6h3.2
	c0.4,0,0.8,0.1,1.1,0.2c0.3,0.1,0.6,0.3,0.9,0.5c0.2,0.2,0.4,0.4,0.5,0.7c0.1,0.3,0.2,0.6,0.2,0.9c0,0.3,0,0.6-0.1,0.9
	c-0.1,0.3-0.2,0.5-0.4,0.7c-0.2,0.2-0.4,0.3-0.6,0.5c-0.2,0.1-0.5,0.2-0.8,0.3l2.3,3.1H157.3z"/>
<path class="st4" d="M161.2,41.5c0,3.3-2.7,6.1-5.9,6.1s-5.9-2.7-5.9-6.1c0-3.3,2.7-6.1,5.9-6.1S161.2,38.2,161.2,41.5z"/>
</svg>
