<?xml version="1.0" encoding="utf-8"?>
<!-- Generator: Adobe Illustrator 24.0.0, SVG Export Plug-In . SVG Version: 6.00 Build 0)  -->
<svg version="1.1" id="Layer_1" xmlns="http://www.w3.org/2000/svg" xmlns:xlink="http://www.w3.org/1999/xlink" x="0px" y="0px"
	 viewBox="0 0 225.4 89.8" style="enable-background:new 0 0 225.4 89.8;" xml:space="preserve">
<style type="text/css">
	.st0{fill:none;stroke:#986F33;stroke-width:2;}
	.st1{fill:#986F33;}
</style>
<g>
	<line class="st0" x1="151.3" y1="88.6" x2="0.3" y2="88.6"/>
	<g>
		<path class="st1" d="M218.5,18.7c0,8.6-6.2,15.5-14.7,15.5c-8.6,0-14.8-7-14.8-15.6v-0.1C189,9.9,195.2,3,203.7,3
			C212.3,2.9,218.5,10,218.5,18.7L218.5,18.7z M221.2,18.6C221.3,18.5,221.3,18.5,221.2,18.6c0-9.6-6.9-18-17.4-18
			s-17.5,8.5-17.5,18v0.1c0,9.5,6.9,17.9,17.4,17.9C214.2,36.5,221.2,28,221.2,18.6 M181.7,30.5l-1.7-1.7c-3.5,3.5-6.9,5.4-12,5.4
			c-8.3,0-14.7-6.8-14.7-15.6v-0.1c0-8.7,6.3-15.5,14.6-15.5c5.2,0,8.7,2.2,11.7,5.1l1.8-1.9c-3.6-3.3-7.3-5.6-13.5-5.6
			c-10,0-17.4,8.1-17.4,18v0.1c0,10,7.3,17.9,17.3,17.9C174.1,36.5,178,34.1,181.7,30.5 M140.7,11.3c0,5-4.3,7.9-10.1,7.9h-11.7V3.6
			h11.9C137,3.6,140.7,6.5,140.7,11.3L140.7,11.3z M144.6,35.9l-11.5-14.8c5.9-0.8,10.2-4.1,10.2-9.9v-0.1c0-5.8-4.9-9.9-12.4-9.9
			h-14.6v34.7h2.6V21.5h11.4l11.1,14.4H144.6z M100.6,23.9H82.3l9.2-20.1L100.6,23.9z M108.9,35.9l-16.2-35h-2.5L74,35.9h2.7
			l4.4-9.7h20.5l4.4,9.7H108.9z M66.8,35.9V1.2h-2.6v16.1H41.9V1.2h-2.6v34.7h2.6V19.7h22.2V36L66.8,35.9L66.8,35.9z M32.3,30.5
			l-1.7-1.7c-3.5,3.5-6.9,5.4-12,5.4c-8.3,0-14.7-6.8-14.7-15.6v-0.1C3.9,9.8,10.2,3,18.5,3c5.2,0,8.7,2.2,11.7,5.1L32,6.2
			c-3.6-3.3-7.3-5.6-13.5-5.6c-10,0-17.4,8.1-17.4,18v0.1c0,10,7.3,17.9,17.3,17.9C24.6,36.5,28.6,34.1,32.3,30.5"/>
		<path class="st1" d="M169.2,35.4h2.2l16.1,49.5l16.2-49.5h2.2l18.6,54.2h-2.7l-16.9-50.2l-16.2,50.3h-2l-16.2-50.2l-16.9,50.1
			h-2.8L169.2,35.4z M140.7,60.4c0-5-4.3-7.9-10.1-7.9h-11.7v15.6h11.9C137,68.1,140.7,65.2,140.7,60.4L140.7,60.4z M144.6,35.7
			l-11.5,14.8c5.9,0.8,10.2,4.1,10.2,9.9v0.1c0,5.8-4.9,9.9-12.4,9.9h-14.6V35.7h2.6v14.4h11.4l11.1-14.4
			C141.4,35.7,144.6,35.7,144.6,35.7z M100.6,47.8H82.3l9.2,20.1L100.6,47.8z M108.9,35.7l-16.2,35h-2.5L74,35.7h2.7l4.4,9.7h20.5
			l4.4-9.7C106,35.7,108.9,35.7,108.9,35.7z M66.8,35.7v34.7h-2.6v-16H41.9v16.1h-2.6V35.7h2.6V52h22.2V35.7H66.8z M32.3,41.2
			l-1.7,1.7c-3.5-3.5-6.9-5.4-12-5.4c-8.3,0-14.7,6.8-14.7,15.6v0.1c0,8.7,6.3,15.5,14.6,15.5c5.2,0,8.7-2.2,11.7-5.1l1.8,1.9
			c-3.6,3.3-7.3,5.6-13.5,5.6c-10,0-17.4-8.1-17.4-18V53c0-10,7.3-17.9,17.3-17.9C24.6,35.1,28.6,37.6,32.3,41.2"/>
	</g>
</g>
</svg>
