<?xml version="1.0" encoding="utf-8"?>
<!-- Generator: Adobe Illustrator 24.0.0, SVG Export Plug-In . SVG Version: 6.00 Build 0)  -->
<svg version="1.1" id="Layer_1" xmlns="http://www.w3.org/2000/svg" xmlns:xlink="http://www.w3.org/1999/xlink" x="0px" y="0px"
	 viewBox="0 0 216 216" style="enable-background:new 0 0 216 216;" xml:space="preserve">
<style type="text/css">
	.st0{fill:none;stroke:#FFFFFF;stroke-width:0.5;stroke-miterlimit:10;}
	.st1{fill:#34A0A0;}
	.st2{enable-background:new    ;}
	.st3{fill:#FFFFFF;}
</style>
<path class="st0" d="M32.4,84.4c-1.7,0-3,1.4-3,3v37.3c0,1.7,1.4,3,3,3h150.2c1.7,0,3-1.4,3-3V87.5c0-1.7-1.4-3-3-3L32.4,84.4
	L32.4,84.4z"/>
<g>
	<path class="st1" d="M58.7,104.7v10.9c-2.2,1.3-5.7,2-8.4,2c-7.5,0-11.9-5.4-11.9-11.7c0-6.6,4.8-11.7,11.6-11.7
		c4.1,0,6.5,1.1,8.3,2.9l-2.1,2.3c-1.8-1.8-3.9-2.3-6.1-2.3c-5.1,0-8.4,4-8.4,8.8c0,5,3.7,8.8,8.6,8.8c2.1,0,4.1-0.4,5.5-1.2v-6.2
		h-4.9v-2.8h7.8V104.7z"/>
	<path class="st1" d="M64.2,94.9H72c5.7,0,7.1,3.4,7.1,6.2c0,2.8-2.1,5.5-5.5,5.9l6.3,10.1h-3.8l-5.6-9.8h-3.4v9.8h-3L64.2,94.9
		L64.2,94.9z M67.2,104.7h3.9c2.4,0,4.8-0.6,4.8-3.6s-2.4-3.6-4.8-3.6h-3.9V104.7z"/>
	<path class="st1" d="M81.9,106c0-6.6,4.8-11.7,11.6-11.7s11.6,5.1,11.6,11.7s-4.8,11.7-11.6,11.7S81.9,112.6,81.9,106z M101.9,106
		c0-4.9-3.3-8.8-8.4-8.8s-8.4,4-8.4,8.8c0,4.9,3.3,8.8,8.4,8.8S101.9,110.9,101.9,106z"/>
	<path class="st1" d="M108,106c0-6.6,4.8-11.7,11.6-11.7s11.6,5.1,11.6,11.7s-4.8,11.7-11.6,11.7S108,112.6,108,106z M127.9,106
		c0-4.9-3.3-8.8-8.4-8.8s-8.4,4-8.4,8.8c0,4.9,3.3,8.8,8.4,8.8S127.9,110.9,127.9,106z"/>
	<path class="st1" d="M132.4,94.9h3.5l6.5,18h0.1l6.8-18h3.3l-8.7,22.2H141L132.4,94.9z"/>
	<path class="st1" d="M155.2,94.9h14.3v2.8h-11.3v6.6h10.5v2.8h-10.5v7.1h11.9v2.8h-14.9V94.9z"/>
</g>
<g class="st2">
	<path class="st3" d="M174.4,94.4c1.5,0,2.7,1.2,2.7,2.7s-1.2,2.7-2.7,2.7s-2.7-1.2-2.7-2.7S172.9,94.4,174.4,94.4z M174.4,99.3
		c1.3,0,2.3-1,2.3-2.3s-1-2.3-2.3-2.3s-2.3,1-2.3,2.3C172.1,98.3,173.1,99.3,174.4,99.3z M173.3,95.5h1.1c0.6,0,1.1,0.2,1.1,0.9
		c0,0.4-0.3,0.7-0.7,0.8l0.8,1.3H175l-0.7-1.3h-0.4v1.3h-0.5v-3C173.4,95.5,173.3,95.5,173.3,95.5z M174.3,96.8
		c0.3,0,0.7-0.1,0.7-0.4s-0.3-0.4-0.6-0.4h-0.5v0.9L174.3,96.8L174.3,96.8z"/>
</g>
</svg>
