<?xml version="1.0" encoding="utf-8"?>
<!-- Generator: Adobe Illustrator 24.2.3, SVG Export Plug-In . SVG Version: 6.00 Build 0)  -->
<svg version="1.1" id="Layer_1" xmlns="http://www.w3.org/2000/svg" xmlns:xlink="http://www.w3.org/1999/xlink" x="0px" y="0px"
	 viewBox="0 0 148.1 95.4" style="enable-background:new 0 0 148.1 95.4;" xml:space="preserve">
<style type="text/css">
	.st0{fill:#A71F24;}
	.st1{fill:#F09F22;}
	.st2{fill:#438E73;}
	.st3{fill:#0386B3;}
</style>
<g>
	<path d="M28.7,93.1l0.2,1.4c-0.4,0-5.5,0-5,0c0,0,0.3-0.2,0.3-0.9v-5c0-0.8-0.3-1-0.3-1s0.3,0.1,0.8,0.1c0.6,0,0.8-0.1,0.8-0.1
		s-0.3,0.2-0.3,1v4.8c0,0.5,0,1,0.6,1h1.8C28.8,94.2,28.7,93.1,28.7,93.1"/>
	<path d="M34.5,94.5h-4.7c0,0,0.3-0.2,0.3-1v-5c0-0.8-0.3-0.9-0.3-0.9h4.7L34.3,89c0,0,0.1-1.2-1.1-1.2h-1.4c-0.5,0-0.6,0.3-0.6,0.6
		v2.5c0,0.2,0.1,0.3,0.3,0.3h0.8c0.8,0,1-0.6,1-0.8c0,0.2,0,0.6,0,0.8c0,0.3,0,0.8,0,0.9c0-0.2-0.3-0.8-1-0.8h-0.8
		c-0.2,0-0.3,0.1-0.3,0.3v2c0,0.3,0.1,0.6,0.6,0.6h1.4c1.2,0,1.1-1.2,1.1-1.3L34.5,94.5L34.5,94.5z"/>
	<path d="M41.4,89c0,0,0.1-1.2-1-1.2c-0.3,0-0.8,0-1.1,0c-0.2,0-0.4,0.1-0.4,0.3v5.4c0,0.8,0.3,1,0.3,1s-0.3-0.1-0.8-0.1
		c-0.6,0-0.8,0.1-0.8,0.1s0.3-0.2,0.3-1v-5.4c0-0.2-0.1-0.3-0.3-0.3h-1c-1.3,0-1.1,1.2-1.1,1.2l-0.2-1.4h6.3L41.4,89L41.4,89z"/>
	<path d="M43.3,87.6c0,0.5-0.4,1.2-0.4,1.2s-0.4-0.8-0.4-1.2c0-0.2,0.1-0.5,0.4-0.5C43.2,87.2,43.3,87.3,43.3,87.6"/>
	<path d="M48.3,92.6c0.1,0.9-0.7,1.8-2.1,1.8c-0.4,0-0.8-0.1-1.1-0.2c-0.1,0-0.6-0.1-0.6,0.3v-1.8c0.2,0.7,0.7,1.5,1.7,1.5
		c0.8,0,1.2-0.5,1.2-1.2c0-1.7-3-2.1-3-3.9c0-1,0.8-1.6,2.1-1.6c0.4,0,0.8,0.1,1.1,0.2c0.4,0.1,0.6,0,0.7-0.2l-0.2,1L48,89.1
		c0,0-0.3-1.4-1.5-1.4c-0.7,0-1.2,0.5-1.2,1.2C45.4,90.4,48.2,90.8,48.3,92.6"/>
	<path d="M56.2,93.1l0.2,1.4c-0.4,0-5.5,0-5,0c0,0,0.3-0.2,0.3-0.9v-5c0-0.8-0.3-1-0.3-1s0.3,0.1,0.8,0.1c0.6,0,0.8-0.1,0.8-0.1
		s-0.3,0.2-0.3,1v4.8c0,0.5,0,1,0.6,1h1.8C56.3,94.2,56.2,93.1,56.2,93.1"/>
	<path d="M57.7,93.5v-4.9c0-0.8-0.3-1-0.3-1s0.3,0.1,0.8,0.1c0.6,0,0.8-0.1,0.8-0.1s-0.3,0.2-0.3,1v4.9c0,0.8,0.3,1,0.3,1
		s-0.3-0.1-0.8-0.1c-0.6,0-0.8,0.1-0.8,0.1S57.7,94.3,57.7,93.5"/>
	<path d="M66.3,87.6c0,0-0.8,0.1-1.1,0.8l-2.2,6c0,0-2.5-6.1-2.5-6.2c-0.1-0.4-0.4-0.6-0.5-0.7c0,0,0.4,0.1,0.9,0.1
		c0.4,0,0.7,0,0.9-0.1c-0.2,0.1-0.3,0.3-0.2,0.7l1.8,4.7c0,0,1.6-4.5,1.6-4.6c0.1-0.4-0.3-0.8-0.6-0.8h1.9L66.3,87.6L66.3,87.6z"/>
	<path d="M71.9,94.5h-4.7c0,0,0.3-0.2,0.3-1v-5c0-0.8-0.3-0.9-0.3-0.9h4.7L71.7,89c0,0,0.1-1.2-1.1-1.2h-1.4c-0.5,0-0.6,0.3-0.6,0.6
		v2.5c0,0.2,0.1,0.3,0.3,0.3h0.8c0.8,0,1-0.6,1-0.8c0,0.2,0,0.6,0,0.8c0,0.3,0,0.8,0,0.9c0-0.2-0.3-0.8-1-0.8h-0.8
		c-0.2,0-0.3,0.1-0.3,0.3v2c0,0.3,0.1,0.6,0.6,0.6h1.4c1.2,0,1.1-1.2,1.1-1.3L71.9,94.5L71.9,94.5z"/>
	<path d="M79.9,92.5c0,1.3-1.3,1.9-2.8,1.9c-0.3,0-1-0.1-1.4-0.1c-0.5,0-0.7,0.1-0.7,0.1s0.3-0.2,0.3-1v-4.9c0-0.8-0.3-0.9-0.3-0.9
		s0.2,0.1,0.7,0.1c0.3,0,0.8-0.1,1.3-0.1c1.4,0,2.4,0.5,2.4,1.6c0,0.7-0.5,1.4-1.2,1.5C79.2,90.9,79.9,91.6,79.9,92.5 M76.3,88.6
		v1.7c0,0.2,0.1,0.3,0.3,0.3h0.5c0.8,0,1.5-0.5,1.5-1.5c0-0.8-0.6-1.5-1.4-1.5c-0.1,0-0.4,0-0.5,0C76.2,87.8,76.3,88.3,76.3,88.6
		 M78.9,92.5c0-1.1-1-1.7-1.8-1.7h-0.5c-0.2,0-0.3,0.1-0.3,0.3v2.2c0,0.5-0.1,0.9,0.4,1c0.1,0,0.4,0,0.5,0
		C78.2,94.3,78.9,93.4,78.9,92.5"/>
	<path d="M85.5,94.5h-4.7c0,0,0.3-0.2,0.3-1v-5c0-0.8-0.3-0.9-0.3-0.9h4.7L85.3,89c0,0,0.1-1.2-1.1-1.2h-1.4c-0.5,0-0.6,0.3-0.6,0.6
		v2.5c0,0.2,0.1,0.3,0.3,0.3h0.8c0.8,0,1-0.6,1-0.8c0,0.2,0,0.6,0,0.8c0,0.3,0,0.8,0,0.9c0-0.2-0.3-0.8-1-0.8h-0.8
		c-0.2,0-0.3,0.1-0.3,0.3v2c0,0.3,0.1,0.6,0.6,0.6h1.4c1.2,0,1.1-1.2,1.1-1.3L85.5,94.5L85.5,94.5z"/>
	<path d="M91.9,94.4c-0.5,0-0.8,0.1-0.8,0.1s0.3-0.1,0.2-0.7l-0.6-2c-0.1-0.2-0.2-0.3-0.5-0.3h-1.6c-0.2,0-0.3,0.1-0.4,0.2
		c-0.1,0.4-0.7,2.1-0.7,2.1c-0.1,0.5,0.3,0.8,0.6,0.8h-1.6c0,0,0.6,0,0.9-0.8c0,0,2.1-6,2.1-6.1h1.3c-0.3,0.1-0.1,0.6,0,0.9l1.6,5.2
		c0.2,0.5,0.6,0.7,0.6,0.7S92.5,94.4,91.9,94.4 M90.4,90.9l-1-3c-0.2,0.5-1,2.8-1.1,3.2c0,0.1,0.1,0.2,0.2,0.2h1.6
		C90.3,91.2,90.4,91.1,90.4,90.9"/>
	<path d="M99,88.6v3.9c0,1.6-1.2,2.2-2.5,2.2S94,94.1,94,92.5v-3.9c0-0.8-0.3-1-0.3-1s0.3,0.1,0.8,0.1c0.6,0,0.8-0.1,0.8-0.1
		s-0.3,0.2-0.3,1V93c0,0.7,0.4,1.5,1.5,1.5l0,0c1.1,0,1.5-0.8,1.5-1.5v-4.4c0-0.8-0.3-1-0.3-1s0.3,0.1,0.8,0.1
		c0.6,0,0.8-0.1,0.8-0.1S99,87.8,99,88.6"/>
	<path d="M106.2,89c0,0,0.1-1.2-1-1.2c-0.3,0-0.8,0-1.1,0c-0.2,0-0.4,0.1-0.4,0.3v5.4c0,0.8,0.3,1,0.3,1s-0.3-0.1-0.8-0.1
		c-0.6,0-0.8,0.1-0.8,0.1s0.3-0.2,0.3-1v-5.4c0-0.2-0.1-0.3-0.3-0.3h-1c-1.3,0-1.1,1.2-1.1,1.2l-0.2-1.4h6.3L106.2,89L106.2,89z"/>
	<path d="M107.7,93.5v-4.9c0-0.8-0.3-1-0.3-1s0.3,0.1,0.8,0.1c0.6,0,0.8-0.1,0.8-0.1s-0.3,0.2-0.3,1v4.9c0,0.8,0.3,1,0.3,1
		s-0.3-0.1-0.8-0.1c-0.6,0-0.8,0.1-0.8,0.1S107.7,94.3,107.7,93.5"/>
	<path d="M114.4,89c0,0,0.1-1.2-1.1-1.2h-1.4c-0.5,0-0.6,0.5-0.6,0.8V91c0,0.2,0.1,0.3,0.3,0.3h0.8c0.8,0,1-0.6,1-0.8
		c0,0.1,0,0.6,0,0.8c0,0.3,0,0.8,0,0.9c0-0.2-0.3-0.8-1-0.8h-0.8c-0.2,0-0.3,0.1-0.3,0.3v1.8c0,0.8,0.3,1,0.3,1s-0.3-0.1-0.8-0.1
		c-0.6,0-0.8,0.1-0.8,0.1s0.3-0.2,0.3-1v-4.9c0-0.8-0.3-1-0.3-1h4.7L114.4,89L114.4,89z"/>
	<path d="M120.9,88.6v3.9c0,1.6-1.2,2.2-2.5,2.2s-2.5-0.6-2.5-2.2v-3.9c0-0.8-0.3-1-0.3-1s0.3,0.1,0.8,0.1c0.6,0,0.8-0.1,0.8-0.1
		s-0.3,0.2-0.3,1V93c0,0.7,0.4,1.5,1.5,1.5l0,0c1.1,0,1.5-0.8,1.5-1.5v-4.4c0-0.8-0.3-1-0.3-1s0.3,0.1,0.8,0.1
		c0.6,0,0.8-0.1,0.8-0.1S120.9,87.8,120.9,88.6"/>
	<path d="M126.9,93.1l0.2,1.4c-0.4,0-5.5,0-5,0c0,0,0.3-0.2,0.3-0.9v-5c0-0.8-0.3-1-0.3-1s0.3,0.1,0.8,0.1c0.6,0,0.8-0.1,0.8-0.1
		s-0.3,0.2-0.3,1v4.8c0,0.5,0,1,0.6,1h1.8C127,94.2,126.9,93.1,126.9,93.1"/>
</g>
<path class="st0" d="M63.9,64c0,1.7-1.4,3-3,3c-1.7,0-3-1.4-3-3c0-1.7,1.4-3,3-3C62.5,60.9,63.9,62.3,63.9,64"/>
<path class="st1" d="M72.6,64c0,1.7-1.4,3-3,3c-1.7,0-3-1.4-3-3c0-1.7,1.4-3,3-3C71.2,60.9,72.6,62.3,72.6,64"/>
<path class="st2" d="M81.3,64c0,1.7-1.4,3-3,3c-1.7,0-3-1.4-3-3c0-1.7,1.4-3,3-3C80,60.9,81.3,62.3,81.3,64"/>
<g>
	<path class="st3" d="M93.1,66.1C83.7,88.3,50.6,81.3,36.3,69C28.1,61.8,19.9,53.6,15,32.4v-1.3h3.7c6.7,0,12.7-5,12.7-14.4
		c0-8.1-5.1-14.9-12.7-14.9c-1,0-3.1,0-3.8,0.1c-3.6,0.5-3.1,4.6-3.1,7.8c0,0-0.1,39,0,40c0.3,6.5,2.8,7.8,2.8,7.8S12.4,57,7.7,57
		C3.2,57,1,57.5,1,57.5s2.7-1.3,2.7-7.8v-41C3.7,2.3,1,0.9,1,0.9s1.3,0.5,5.8,0.5c2.7,0.1,7-0.8,10.9-0.8c12.6,0,21,5.5,21,15.6
		c0,8.5-6.8,15.4-15.6,16h-1.9c4.2,12.6,8.5,23.3,21.1,33.4c13.8,11,40.5,17.3,50.5,0.1L93.1,66.1L93.1,66.1z"/>
	<path class="st3" d="M65.9,56.3c0,0-1.1-0.4-6.3-0.4c-3.6,0-5.1,0.4-5.1,0.4s1.3-1,1.3-3.9V36.6c0,0.3-1.3,1.2-4.8,2.3
		c-4.1,1.3-7,3.2-7,8.8c0,7.4,4,9.2,6.2,7.6c2-1.3,1.7-3.7,0-3.3c-2.8,0.6-3.7-2.1-2.2-3.7c1.9-2.1,6.2-1.2,6.2,2.6
		c-0.1,3.5-2.8,6.3-8.5,5.9c-4.4-0.4-9.5-2.4-9.5-9c0-7.9,10.8-9.2,14.2-10.1c2.2-0.6,5.4-1.5,5.4-3.3V33c0-2.2,0.1-8.5-6.8-9.1
		c-4.9-0.3-7.7,1.6-7.7,1.6c1.9-1.6,4.8-2.6,8.1-2.6c8.7-0.1,14.3,3.8,14.3,13.1v14C63.7,55.3,65.9,56.3,65.9,56.3"/>
	<path class="st3" d="M129.3,78.5c-14,1.4-33.1-4.7-33.1-31.6V34.4c0-1.7,0.6-9.9-6.3-9.9c-4.6,0-7.5,5.4-7.5,9.9v13.8
		c0,6.5,2.8,7.9,2.8,7.9s-2.2-0.6-6.7-0.6s-6.7,0.6-6.7,0.6s2.8-1.3,2.8-7.9v-15c0-6.2-1.7-7.6-2.8-7.9c4.7,0,9.2-1.2,10.7-3.4v6.7
		c0.8-2.5,3.9-5.1,7.4-5.8c8.2-1.7,14.4,3,14.4,10.8v11.6C104.1,69.9,115,77.1,129.3,78.5"/>
	<path class="st3" d="M143.9,61.9c0,6.1-4.3,11.4-10.5,14.1c4.5-2.9,7.4-7.9,7.4-11.1c0-7.9-9.3-7.4-19.5-7.3
		c-11.3,0.1-10.8-11-2.6-13.5c-4.2-1.5-7.9-4.7-7.9-10c0-8.4,8.6-11.2,14.4-11.2c0,0,8.6-1,12.5-3.7l1.6,4.4h-8.8
		c2.4,0.6,4.7,1.9,6.5,3.7l1.1,1.4c0.9,1.5,1.4,3.2,1.4,5.3c0,8.1-8.6,11.1-14.4,11.1c-1.2,0-2.5-0.1-3.8-0.4
		c-2.1,0.3-4.2,1.1-4.2,3.1c0,2.9,7.3,1.7,10.8,1.5C138.9,48.9,143.9,54.8,143.9,61.9 M118.7,34.1c0.1,7,3.3,10.3,6.5,10.3
		c3.3-0.1,6.2-3.5,6.2-10.4c-0.2-7.5-3.2-10.4-6.4-10.3C121.6,23.7,118.8,27.4,118.7,34.1"/>
</g>
<g>
	<path d="M145.5,22.9l-0.9-1.3h-0.9v1.3h-0.4v-3.3h1.4c0.2,0,0.3,0,0.5,0.1c0.1,0,0.3,0.1,0.4,0.2c0.1,0.1,0.2,0.2,0.2,0.3
		c0.1,0.1,0.1,0.3,0.1,0.4s0,0.3-0.1,0.4c0,0.1-0.1,0.2-0.2,0.3c-0.1,0.1-0.2,0.1-0.3,0.2s-0.2,0.1-0.4,0.1l1,1.3H145.5L145.5,22.9z
		 M145.2,20.2c-0.1-0.1-0.4-0.2-0.6-0.2h-1v1.3h1c0.1,0,0.2,0,0.3,0s0.2-0.1,0.3-0.1c0.1-0.1,0.1-0.1,0.2-0.2c0-0.1,0.1-0.2,0.1-0.3
		C145.4,20.4,145.4,20.3,145.2,20.2"/>
	<path d="M144.4,24.5c-1.8,0-3.2-1.4-3.2-3.2c0-1.8,1.4-3.2,3.2-3.2s3.2,1.4,3.2,3.2C147.5,23,146.1,24.5,144.4,24.5 M144.4,18.5
		c-1.6,0-2.8,1.3-2.8,2.8s1.3,2.8,2.8,2.8c1.6,0,2.8-1.3,2.8-2.8S145.9,18.5,144.4,18.5"/>
</g>
</svg>
